<svg width="390" height="115" viewBox="0 0 390 115" fill="none" xmlns="http://www.w3.org/2000/svg">
<rect width="390" height="115" fill="white"/>
<path d="M53.844 52.6146H49V46.1298H50.2955V51.412H52.9428V46.1239H54.2383V51.412H55.0832V54H53.844V52.6146ZM57.9614 46.1239H62.2197V47.3265H59.2569V48.6412H61.4311V49.7731H59.2569V51.412H62.3323V52.6146H57.9614V46.1298V46.1239ZM65.3739 46.1239H66.6694V48.6117H69.4688V46.1239H70.7643V52.6087H69.4688V49.8143H66.6694V52.6146H65.3739V46.1298V46.1239ZM75.5576 47.3265H73.5355V46.1298H78.8865V47.3265H76.8588V52.6146H75.5633V47.3265H75.5576ZM84.0403 49.1659C84.3388 49.1659 84.5754 49.0774 84.7444 48.9065C84.9133 48.7296 84.9978 48.4997 84.9978 48.2226C84.9978 47.9455 84.9133 47.7215 84.7387 47.5505C84.5698 47.3796 84.3332 47.297 84.0403 47.297H82.9588V49.1659H84.0403ZM81.6633 46.1239H84.0403C84.4796 46.1239 84.8739 46.2123 85.2231 46.3892C85.557 46.5485 85.8392 46.8062 86.0353 47.1308C86.2314 47.4554 86.3328 47.8327 86.3271 48.2167C86.3353 48.6035 86.2344 48.9842 86.037 49.3113C85.8397 49.6384 85.5546 49.8975 85.2175 50.056C84.8796 50.2329 84.4853 50.3213 84.0347 50.3213H82.9588V52.6146H81.6633V46.1298V46.1239ZM94.8943 52.2904C94.3916 52.0055 93.9715 51.5842 93.6781 51.0707C93.3847 50.5572 93.2289 49.9705 93.227 49.3722C93.227 48.7473 93.3791 48.1813 93.6776 47.6626C93.9753 47.1532 94.3971 46.7361 94.8999 46.454C95.4181 46.1593 95.987 46.0119 96.6066 46.0119C97.2036 46.0119 97.75 46.1534 98.24 46.4363C98.72 46.7125 99.1191 47.12 99.3947 47.6154L98.4203 48.3287C98.2384 47.9941 97.9743 47.7165 97.6554 47.5248C97.3365 47.333 96.9744 47.234 96.6066 47.2381C96.2123 47.2381 95.8631 47.3265 95.5533 47.5152C95.2474 47.6938 94.9941 47.9568 94.8211 48.2757C94.644 48.6131 94.5546 48.9932 94.562 49.3781C94.562 49.7908 94.6521 50.1622 94.8267 50.4805C95.0013 50.8047 95.2435 51.0524 95.5589 51.2351C95.8631 51.412 96.2123 51.5004 96.6066 51.5004C97.367 51.5004 97.9697 51.1408 98.4203 50.4098L99.3947 51.1172C99.1247 51.6166 98.7267 52.027 98.2457 52.3022C97.7405 52.593 97.1718 52.7413 96.5953 52.7325C96.0016 52.7389 95.4162 52.5867 94.8943 52.2904ZM103.844 47.3265H101.822V46.1298H107.173V47.3265H105.146V52.6146H103.85V47.3265H103.844ZM113.865 51.2351C114.179 51.0521 114.439 50.7807 114.614 50.4515C114.789 50.1224 114.873 49.7485 114.856 49.3722C114.862 48.9887 114.77 48.6105 114.591 48.2757C114.422 47.9545 114.17 47.6891 113.865 47.5093C113.546 47.3247 113.187 47.2311 112.823 47.2381C112.429 47.2381 112.091 47.3265 111.781 47.5093C111.471 47.6861 111.229 47.9396 111.054 48.2639C110.874 48.6025 110.783 48.9848 110.789 49.3722C110.789 49.7849 110.88 50.1504 111.054 50.4746C111.227 50.8027 111.484 51.073 111.797 51.2545C112.11 51.436 112.466 51.5212 112.823 51.5004C113.206 51.5004 113.555 51.412 113.865 51.2351ZM112.817 52.7325C112.227 52.7395 111.645 52.5872 111.127 52.2904C110.627 52.0031 110.208 51.5812 109.915 51.0683C109.622 50.5553 109.465 49.9698 109.46 49.3722C109.46 48.7473 109.607 48.1813 109.911 47.6626C110.207 47.1524 110.626 46.7333 111.127 46.4481C111.634 46.1534 112.198 46.006 112.817 46.006C113.431 46.006 113.994 46.1593 114.507 46.4481C115.025 46.7429 115.431 47.1556 115.735 47.6626C116.039 48.1813 116.191 48.7473 116.191 49.3722C116.191 49.9912 116.039 50.563 115.735 51.0759C115.435 51.5873 115.012 52.0064 114.507 52.2904C113.994 52.5851 113.431 52.7325 112.817 52.7325ZM125.4 46.0119V52.6146H124.105V49.1541L122.511 51.1997H122.088L120.5 49.1541V52.6146H119.205V46.0119H119.627L122.302 49.5196L124.978 46.0119H125.4ZM131.208 48.4879L130.363 50.6751H132.052L131.208 48.4879ZM132.503 51.7657H129.912L129.563 52.6146H128.166L130.994 46.0119H131.427L134.243 52.6146H132.858L132.503 51.7657ZM137.741 47.3265H135.719V46.1298H141.07V47.3265H139.042V52.6146H137.741V47.3265ZM147.762 51.2351C148.076 51.0521 148.336 50.7807 148.511 50.4515C148.686 50.1224 148.77 49.7485 148.753 49.3722C148.758 48.9887 148.667 48.6105 148.488 48.2757C148.319 47.9545 148.067 47.6891 147.762 47.5093C147.443 47.3247 147.084 47.2311 146.72 47.2381C146.325 47.2381 145.987 47.3265 145.678 47.5093C145.368 47.6861 145.126 47.9396 144.951 48.2639C144.771 48.6025 144.68 48.9848 144.686 49.3722C144.686 49.7849 144.776 50.1504 144.951 50.4746C145.124 50.8027 145.381 51.073 145.694 51.2545C146.007 51.436 146.362 51.5212 146.72 51.5004C147.103 51.5004 147.452 51.412 147.762 51.2351ZM146.714 52.7325C146.124 52.7395 145.542 52.5872 145.024 52.2904C144.524 52.0031 144.105 51.5812 143.812 51.0683C143.519 50.5553 143.362 49.9698 143.357 49.3722C143.357 48.7473 143.503 48.1813 143.808 47.6626C144.104 47.1524 144.523 46.7333 145.024 46.4481C145.531 46.1534 146.094 46.006 146.714 46.006C147.328 46.006 147.891 46.1593 148.404 46.4481C148.922 46.7429 149.328 47.1556 149.632 47.6626C149.936 48.1813 150.088 48.7473 150.088 49.3722C150.088 49.9912 149.936 50.563 149.632 51.0759C149.332 51.5873 148.909 52.0064 148.404 52.2904C147.891 52.5851 147.328 52.7325 146.714 52.7325ZM158.075 46.1239V52.6087H156.779V47.3265H154.96C154.966 48.4135 154.878 49.4988 154.695 50.5689C154.616 51.1743 154.387 51.7474 154.031 52.2314C153.888 52.3892 153.715 52.5135 153.522 52.5958C153.33 52.6781 153.123 52.7167 152.916 52.7089C152.73 52.7089 152.549 52.6795 152.369 52.6146V51.4827C152.409 51.4945 152.493 51.5004 152.628 51.5004C152.887 51.5004 153.09 51.353 153.248 51.0582C153.406 50.7635 153.518 50.3154 153.591 49.7082C153.665 49.101 153.704 48.311 153.721 47.3265L153.732 46.1239H158.075ZM165.499 51.2351C165.808 51.0524 166.051 50.7989 166.225 50.4746C166.4 50.1504 166.49 49.7849 166.49 49.3722C166.495 48.9887 166.404 48.6105 166.225 48.2757C166.054 47.9539 165.8 47.6885 165.493 47.5093C165.176 47.3259 164.819 47.2324 164.457 47.2381C164.062 47.2381 163.719 47.3265 163.409 47.5093C163.105 47.6861 162.863 47.9396 162.688 48.2639C162.508 48.6025 162.417 48.9848 162.423 49.3722C162.423 49.7849 162.513 50.1504 162.688 50.4746C162.857 50.7989 163.105 51.0524 163.409 51.2351C163.719 51.412 164.068 51.5004 164.457 51.5004C164.84 51.5004 165.189 51.412 165.499 51.2351ZM164.445 52.7325C163.855 52.7395 163.273 52.5872 162.756 52.2904C162.254 52.0056 161.834 51.5865 161.539 51.0759C161.238 50.5618 161.082 49.9692 161.088 49.3663C161.088 48.7473 161.24 48.1813 161.539 47.6626C161.837 47.1518 162.258 46.7327 162.761 46.4481C163.28 46.154 163.861 46 164.451 46C165.041 46 165.622 46.154 166.141 46.4481C166.653 46.7242 167.081 47.144 167.377 47.6605C167.674 48.177 167.827 48.7697 167.819 49.3722C167.826 49.9732 167.67 50.5639 167.369 51.0759C167.069 51.5873 166.646 52.0064 166.141 52.2904C165.623 52.5851 165.059 52.7325 164.451 52.7325H164.445ZM170.833 46.1239H174.905V47.3265H172.128V52.6146H170.833V46.1298V46.1239ZM183.208 46.0119V52.6146H181.912V48.594L178.2 52.7325H177.778V46.1298H179.073V50.1091L182.774 46.0119H183.208ZM192 46.0119V52.6146H190.705V48.594L186.998 52.7325H186.576V46.1298H187.871V50.1091L191.572 46.0119H192Z" fill="#57585A"/>
<path d="M48.4261 40.1384H51.4689V29.6594H57.4421V40.1384H60.4849V27.2244H48.4261V40.1384ZM75.7943 35.3635C75.5963 35.8528 75.2999 36.2965 74.9233 36.6671C74.5468 37.0378 74.098 37.3276 73.6048 37.5187C73.086 37.7198 72.5334 37.8205 71.9768 37.8153C71.4127 37.8215 70.8526 37.7208 70.3262 37.5187C69.8313 37.3298 69.3816 37.0394 69.0064 36.6662C68.6311 36.293 68.3387 35.8454 68.148 35.3523C67.9359 34.8218 67.8291 34.2553 67.8336 33.6842C67.8336 33.0685 67.9403 32.5087 68.148 32.0049C68.3456 31.5147 68.6419 31.0702 69.0184 30.6985C69.395 30.3269 69.8439 30.0362 70.3375 29.8442C70.8585 29.6443 71.413 29.5455 71.9711 29.5531C72.5662 29.5531 73.1108 29.6482 73.616 29.8442C74.111 30.0327 74.5609 30.3223 74.937 30.6944C75.3131 31.0665 75.607 31.5129 75.7999 32.0049C76.0076 32.5087 76.1087 33.0685 76.1087 33.6842C76.1087 34.3 76.0076 34.8597 75.7999 35.3635H75.7943ZM77.1416 28.9038C76.4767 28.2931 75.6987 27.8177 74.8511 27.5043C73.9809 27.1685 73.0153 27.0005 71.9711 27.0005C70.9382 27.0005 69.9838 27.1685 69.1024 27.5043C68.221 27.8402 67.4519 28.3048 66.795 28.9038C66.1319 29.5098 65.6053 30.2493 65.2501 31.0734C64.8949 31.8975 64.7192 32.7874 64.7347 33.6842C64.7207 34.5798 64.8959 35.4683 65.2489 36.2919C65.6019 37.1156 66.1249 37.8559 66.7838 38.4647C67.4528 39.0784 68.237 39.554 69.0912 39.8641C69.9782 40.1944 70.9438 40.3623 71.9936 40.3623C73.021 40.3623 73.9753 40.1944 74.8567 39.8585C75.6998 39.5444 76.4752 39.0733 77.1416 38.4703C77.8029 37.8612 78.3285 37.1205 78.6844 36.296C79.0403 35.4716 79.2185 34.5817 79.2076 33.6842C79.2184 32.7875 79.0401 31.8986 78.6842 31.075C78.3283 30.2515 77.8027 29.5117 77.1416 28.9038ZM86.2475 37.2444C86.4721 36.8357 86.6461 36.3431 86.7865 35.761C86.9268 35.1732 87.0279 34.5295 87.1008 33.813C87.1727 33.0587 87.2251 32.3028 87.258 31.5459L87.3142 29.6594H91.8503V37.7034H85.9275C86.0398 37.569 86.1521 37.4235 86.2475 37.2444ZM94.8762 27.2244H84.7093L84.5577 31.266C84.5244 32.1222 84.4645 32.9772 84.3781 33.8298C84.3123 34.5254 84.1807 35.2132 83.9851 35.8841C83.8568 36.3844 83.6169 36.8494 83.2833 37.2444C83.1425 37.3998 82.9686 37.5217 82.7743 37.6011C82.5799 37.6806 82.3702 37.7155 82.1605 37.7034H81.7395L81.7226 42.8141H84.5577V40.1384H93.8938V42.8141H96.7288V37.7034H94.8762V27.2244ZM113.032 27.2244L108.159 35.246L103.207 27.2244H100.675V40.1384H103.544V32.5535L107.44 38.7726H108.799L112.695 32.4191L112.712 40.144H115.581L115.564 27.2244H113.037H113.032ZM130.901 35.3635C130.703 35.8526 130.406 36.2962 130.03 36.6668C129.653 37.0374 129.205 37.3273 128.712 37.5187C128.206 37.7146 127.662 37.8153 127.072 37.8153C126.51 37.8208 125.952 37.7201 125.428 37.5187C124.931 37.3308 124.48 37.0408 124.104 36.6675C123.728 36.2942 123.435 35.8461 123.244 35.3523C123.033 34.8215 122.928 34.255 122.935 33.6842C122.935 33.0685 123.042 32.5087 123.249 32.0049C123.447 31.5147 123.743 31.0702 124.12 30.6985C124.496 30.3269 124.945 30.0362 125.439 29.8442C125.958 29.6452 126.511 29.5464 127.067 29.5531C127.662 29.5531 128.212 29.6482 128.717 29.8442C129.212 30.033 129.662 30.3227 130.038 30.6947C130.414 31.0668 130.708 31.513 130.901 32.0049C131.109 32.5087 131.21 33.0685 131.21 33.6842C131.21 34.3 131.109 34.8597 130.901 35.3635ZM132.237 28.9038C131.574 28.2936 130.798 27.8182 129.952 27.5043C129.077 27.1685 128.117 27.0005 127.072 27.0005C126.039 27.0005 125.079 27.1685 124.204 27.5043C123.317 27.8402 122.553 28.3048 121.896 28.9038C121.233 29.51 120.707 30.2496 120.352 31.0736C119.997 31.8977 119.821 32.7874 119.836 33.6842C119.822 34.5798 119.997 35.4683 120.35 36.2919C120.703 37.1156 121.226 37.8559 121.885 38.4647C122.553 39.0777 123.335 39.5532 124.187 39.8641C125.079 40.1944 126.045 40.3623 127.089 40.3623C128.122 40.3623 129.077 40.1944 129.952 39.8585C130.798 39.5458 131.575 39.0746 132.243 38.4703C132.906 37.8623 133.432 37.1218 133.788 36.2971C134.144 35.4723 134.322 34.582 134.309 33.6842C134.319 32.7871 134.14 31.8979 133.783 31.0743C133.426 30.2508 132.899 29.5112 132.237 28.9038ZM141.944 30.695C142.327 30.3219 142.784 30.0322 143.286 29.8442C144.425 29.4218 145.683 29.4518 146.8 29.9281C147.379 30.1975 147.895 30.5845 148.316 31.0645L150.281 29.29C149.652 28.5429 148.85 27.959 147.945 27.5883C147.019 27.1964 145.98 27.0061 144.835 27.0061C143.802 27.0061 142.853 27.1685 141.983 27.4931C141.113 27.8178 140.355 28.2824 139.704 28.887C139.043 29.4979 138.519 30.2409 138.166 31.0676C137.813 31.8942 137.639 32.7859 137.655 33.6842C137.634 35.037 138.039 36.3622 138.813 37.473C139.588 38.5838 140.693 39.4241 141.972 39.8753C142.848 40.1944 143.797 40.3623 144.818 40.3623C145.975 40.3623 147.019 40.1664 147.945 39.769C148.872 39.3771 149.646 38.8061 150.281 38.056L148.316 36.2816C147.908 36.7638 147.399 37.1506 146.825 37.4147C146.25 37.6788 145.625 37.8137 144.992 37.8097C144.41 37.8186 143.832 37.7199 143.286 37.5187C142.787 37.3302 142.332 37.041 141.951 36.6692C141.569 36.2974 141.269 35.851 141.068 35.3579C140.853 34.8243 140.747 34.2536 140.754 33.6786C140.754 33.0629 140.86 32.5031 141.068 31.9993C141.276 31.4955 141.568 31.0645 141.944 30.695ZM166.073 27.2244H162.845L159.375 32.4471H157.175V27.2244H154.132V40.1384H157.175V34.9325H159.28L162.732 40.1384H166.208L161.75 33.4603L166.073 27.2244ZM179.614 35.3635C179.415 35.8526 179.119 36.2962 178.742 36.6668C178.366 37.0374 177.917 37.3273 177.424 37.5187C176.919 37.7146 176.38 37.8153 175.785 37.8153C175.225 37.8201 174.669 37.7194 174.146 37.5187C173.648 37.3314 173.196 37.0417 172.819 36.6684C172.442 36.2951 172.148 35.8467 171.956 35.3523C171.746 34.8216 171.641 34.255 171.647 33.6842C171.647 33.0685 171.754 32.5087 171.962 32.0049C172.16 31.5147 172.456 31.0702 172.832 30.6985C173.209 30.3269 173.658 30.0362 174.151 29.8442C174.672 29.6445 175.227 29.5457 175.785 29.5531C176.38 29.5531 176.925 29.6482 177.43 29.8442C177.925 30.033 178.374 30.3227 178.751 30.6947C179.127 31.0668 179.421 31.513 179.614 32.0049C179.821 32.5087 179.928 33.0685 179.928 33.6842C179.928 34.3 179.816 34.8597 179.614 35.3635ZM180.955 28.9038C180.292 28.2936 179.516 27.8182 178.671 27.5043C177.748 27.1601 176.77 26.9893 175.785 27.0005C174.752 27.0005 173.798 27.1685 172.916 27.5043C172.035 27.8402 171.266 28.3048 170.609 28.9038C169.946 29.51 169.42 30.2496 169.064 31.0736C168.709 31.8977 168.533 32.7874 168.549 33.6842C168.535 34.5798 168.71 35.4683 169.063 36.2919C169.416 37.1156 169.939 37.8559 170.598 38.4647C171.267 39.0783 172.051 39.5539 172.905 39.8641C173.792 40.1944 174.758 40.3623 175.807 40.3623C176.84 40.3623 177.795 40.1944 178.671 39.8585C179.514 39.5458 180.29 39.0745 180.955 38.4703C181.619 37.8624 182.146 37.122 182.503 36.2974C182.86 35.4727 183.038 34.5823 183.027 33.6842C183.036 32.7867 182.856 31.8972 182.499 31.0736C182.141 30.25 181.613 29.5107 180.95 28.9038H180.955ZM195.288 37.5187C194.923 37.7874 194.39 37.9273 193.682 37.9273H190.314V34.6526H193.682C194.384 34.6526 194.917 34.787 195.288 35.0501C195.653 35.3132 195.833 35.7218 195.833 36.2592C195.833 36.8245 195.653 37.2444 195.288 37.5131V37.5187ZM190.32 29.4411H193.172C193.84 29.4411 194.345 29.5699 194.687 29.833C195.024 30.1017 195.193 30.4935 195.193 31.0085C195.193 31.5235 195.024 31.9153 194.687 32.184C194.339 32.4415 193.84 32.5759 193.172 32.5759H190.32V29.4411ZM197.708 33.9977C197.318 33.7354 196.887 33.5387 196.433 33.4155C196.675 33.3036 196.894 33.1748 197.107 33.0237C197.497 32.7454 197.811 32.3743 198.021 31.9442C198.231 31.5141 198.33 31.0385 198.308 30.5607C198.328 30.0746 198.22 29.5918 197.996 29.1599C197.771 28.728 197.438 28.3619 197.028 28.0977C196.169 27.5155 194.974 27.2244 193.435 27.2244H187.277V40.1384H193.795C195.468 40.1384 196.748 39.8137 197.623 39.17C198.046 38.8687 198.387 38.4676 198.617 38.0026C198.846 37.5377 198.956 37.0233 198.937 36.5055C198.937 35.4083 198.522 34.5743 197.702 33.9977H197.708ZM210.895 37.3507C210.446 37.7314 209.828 37.9273 209.042 37.9273H206.286V33.6842H209.042C209.697 33.6468 210.348 33.8109 210.906 34.1544C211.355 34.4679 211.58 34.9773 211.58 35.6938C211.58 36.4215 211.35 36.9701 210.895 37.3507ZM213.354 32.5087C212.484 31.8146 211.249 31.4675 209.649 31.4675H206.28V27.2244H203.243V40.1384H209.211C210.912 40.1384 212.242 39.7578 213.208 38.9965C214.173 38.2296 214.656 37.1156 214.656 35.6378C214.656 34.2496 214.218 33.2084 213.354 32.5087ZM221.797 37.7426V34.7534H227.939V32.4303H221.797V29.6259H228.753V27.2244H218.76V40.1384H229V37.7426H221.797ZM35.1995 33.0069C34.7729 30.4599 33.2515 29.7434 32.342 29.9001C31.5448 30.0401 31.1518 30.4207 30.1638 32.4751C29.2318 34.3951 28.3617 37.082 27.5252 39.685C25.4929 46.016 23.5729 52 19.5477 52C18.2677 52 17.0214 51.3731 15.8481 50.1527C12.3337 46.4806 9.7064 37.5522 10.0264 32.8166C10.1948 30.2584 11.3401 28.5903 13.4229 27.857C15.0678 27.2804 17.0158 27.3532 18.8965 27.4987C23.8593 27.8738 25.2628 27.7898 25.2628 27.7898L24.9259 28.7022C24.7309 29.2326 24.3678 29.6851 23.8917 29.9911C23.4155 30.2972 22.8523 30.4402 22.2873 30.3983C21.2993 30.3256 20.0418 30.2416 18.7505 30.1744C14.5513 29.9337 12.9513 30.1185 12.7604 32.9901C12.4853 37.082 14.905 45.2491 17.8467 48.3111C18.2846 48.7701 18.9358 49.3187 19.5477 49.3187C20.2888 49.3187 21.1982 48.3111 22.1021 46.4974C23.1238 44.4431 24.0333 41.6162 24.9091 38.8845C26.9189 32.6262 28.6536 27.2188 32.342 27.2188C33.5434 27.2188 34.5876 27.5099 35.4409 28.0697C35.9994 28.4748 36.4693 28.989 36.822 29.5811C37.2572 30.4136 37.5062 31.3303 37.5518 32.268C37.709 35.1956 35.3399 35.8393 35.3399 35.8393C35.3399 35.8393 35.4858 34.7198 35.1995 33.0013V33.0069Z" fill="#1FBBC7"/>
<path d="M29.9726 40.5777C29.9726 40.5777 34.6789 38.2187 40 37C39.5305 37.7435 35.4893 42.0367 29.9726 40.5777ZM29.7154 43.6355C29.7154 43.6355 33.6728 41.6566 38.1443 40.628C37.753 41.2597 34.3491 44.871 29.7154 43.6411V43.6355ZM29.2571 46.6095C29.2571 46.6095 32.6611 44.9045 36.501 44.0213C36.1656 44.5635 33.2424 47.666 29.2571 46.6095ZM29.0727 49.2704C29.0727 49.2704 31.8227 47.8952 34.9304 47.1741C34.6621 47.6157 32.2978 50.1257 29.0727 49.2704ZM29 51.8699C29 51.8699 31.0346 50.8524 33.3318 50.3214C33.1306 50.6456 31.3867 52.5015 29.0056 51.8699H29Z" fill="#1FBBC7"/>
<rect x="260" y="25" width="114.64" height="30" rx="10" fill="#F08C07"/>
<path d="M270.732 44.656L271.164 43.808C271.655 44.2347 272.204 44.5547 272.812 44.768C273.431 44.9707 274.049 45.0773 274.668 45.088C275.287 45.088 275.852 44.9973 276.364 44.816C276.887 44.6347 277.308 44.368 277.628 44.016C277.948 43.6533 278.108 43.216 278.108 42.704C278.108 42.0533 277.847 41.552 277.324 41.2C276.812 40.848 276.097 40.672 275.18 40.672H272.78V39.712H275.116C275.905 39.712 276.519 39.5467 276.956 39.216C277.404 38.8747 277.628 38.4053 277.628 37.808C277.628 37.3813 277.5 37.0187 277.244 36.72C276.999 36.4107 276.657 36.176 276.22 36.016C275.793 35.8453 275.313 35.7547 274.78 35.744C274.247 35.7227 273.692 35.792 273.116 35.952C272.551 36.1013 272.001 36.3413 271.468 36.672L271.084 35.696C271.745 35.3013 272.433 35.0293 273.148 34.88C273.863 34.72 274.556 34.6667 275.228 34.72C275.9 34.7733 276.503 34.928 277.036 35.184C277.58 35.44 278.012 35.776 278.332 36.192C278.652 36.608 278.812 37.104 278.812 37.68C278.812 38.2133 278.673 38.6827 278.396 39.088C278.129 39.4933 277.751 39.808 277.26 40.032C276.78 40.2453 276.209 40.352 275.548 40.352L275.612 40C276.359 40 277.004 40.1173 277.548 40.352C278.103 40.5867 278.529 40.9227 278.828 41.36C279.137 41.7867 279.292 42.288 279.292 42.864C279.292 43.408 279.153 43.8933 278.876 44.32C278.609 44.736 278.236 45.088 277.756 45.376C277.287 45.6533 276.759 45.856 276.172 45.984C275.585 46.1013 274.972 46.1333 274.332 46.08C273.692 46.0267 273.063 45.888 272.444 45.664C271.825 45.4293 271.255 45.0933 270.732 44.656ZM287.176 46V44.144L287.128 43.84V40.736C287.128 40.0213 286.925 39.472 286.52 39.088C286.125 38.704 285.533 38.512 284.744 38.512C284.2 38.512 283.682 38.6027 283.192 38.784C282.701 38.9653 282.285 39.2053 281.944 39.504L281.432 38.656C281.858 38.2933 282.37 38.016 282.968 37.824C283.565 37.6213 284.194 37.52 284.856 37.52C285.944 37.52 286.781 37.792 287.368 38.336C287.965 38.8693 288.264 39.6853 288.264 40.784V46H287.176ZM284.28 46.08C283.65 46.08 283.101 45.9787 282.632 45.776C282.173 45.5627 281.821 45.2747 281.576 44.912C281.33 44.5387 281.208 44.112 281.208 43.632C281.208 43.1947 281.309 42.8 281.512 42.448C281.725 42.0853 282.066 41.7973 282.536 41.584C283.016 41.36 283.656 41.248 284.456 41.248H287.352V42.096H284.488C283.677 42.096 283.112 42.24 282.792 42.528C282.482 42.816 282.328 43.1733 282.328 43.6C282.328 44.08 282.514 44.464 282.888 44.752C283.261 45.04 283.784 45.184 284.456 45.184C285.096 45.184 285.645 45.04 286.104 44.752C286.573 44.4533 286.914 44.0267 287.128 43.472L287.384 44.256C287.17 44.8107 286.797 45.2533 286.264 45.584C285.741 45.9147 285.08 46.08 284.28 46.08ZM291.288 46V37.6H298.84V46H297.704V38.288L297.992 38.592H292.136L292.424 38.288V46H291.288ZM302.069 46V37.6H303.205V44.272L308.821 37.6H309.829V46H308.693V39.312L303.093 46H302.069ZM316.605 46.08C315.773 46.08 315.026 45.8987 314.365 45.536C313.714 45.1627 313.202 44.656 312.829 44.016C312.455 43.3653 312.269 42.624 312.269 41.792C312.269 40.9493 312.455 40.208 312.829 39.568C313.202 38.928 313.714 38.4267 314.365 38.064C315.026 37.7013 315.773 37.52 316.605 37.52C317.319 37.52 317.965 37.6587 318.541 37.936C319.117 38.2133 319.57 38.6293 319.901 39.184L319.053 39.76C318.765 39.3333 318.407 39.0187 317.981 38.816C317.554 38.6133 317.09 38.512 316.589 38.512C315.991 38.512 315.453 38.6507 314.973 38.928C314.493 39.1947 314.114 39.5733 313.837 40.064C313.559 40.5547 313.421 41.1307 313.421 41.792C313.421 42.4533 313.559 43.0293 313.837 43.52C314.114 44.0107 314.493 44.3947 314.973 44.672C315.453 44.9387 315.991 45.072 316.589 45.072C317.09 45.072 317.554 44.9707 317.981 44.768C318.407 44.5653 318.765 44.256 319.053 43.84L319.901 44.416C319.57 44.96 319.117 45.376 318.541 45.664C317.965 45.9413 317.319 46.08 316.605 46.08ZM327.316 46V44.144L327.268 43.84V40.736C327.268 40.0213 327.066 39.472 326.66 39.088C326.266 38.704 325.674 38.512 324.884 38.512C324.34 38.512 323.823 38.6027 323.332 38.784C322.842 38.9653 322.426 39.2053 322.084 39.504L321.572 38.656C321.999 38.2933 322.511 38.016 323.108 37.824C323.706 37.6213 324.335 37.52 324.996 37.52C326.084 37.52 326.922 37.792 327.508 38.336C328.106 38.8693 328.404 39.6853 328.404 40.784V46H327.316ZM324.42 46.08C323.791 46.08 323.242 45.9787 322.772 45.776C322.314 45.5627 321.962 45.2747 321.716 44.912C321.471 44.5387 321.348 44.112 321.348 43.632C321.348 43.1947 321.45 42.8 321.652 42.448C321.866 42.0853 322.207 41.7973 322.676 41.584C323.156 41.36 323.796 41.248 324.596 41.248H327.492V42.096H324.628C323.818 42.096 323.252 42.24 322.932 42.528C322.623 42.816 322.468 43.1733 322.468 43.6C322.468 44.08 322.655 44.464 323.028 44.752C323.402 45.04 323.924 45.184 324.596 45.184C325.236 45.184 325.786 45.04 326.244 44.752C326.714 44.4533 327.055 44.0267 327.268 43.472L327.524 44.256C327.311 44.8107 326.938 45.2533 326.404 45.584C325.882 45.9147 325.22 46.08 324.42 46.08ZM333.029 46V38.288L333.317 38.592H329.845V37.6H337.349V38.592H333.877L334.165 38.288V46H333.029ZM342.607 40.56C343.663 40.5707 344.463 40.8053 345.007 41.264C345.562 41.7227 345.839 42.384 345.839 43.248C345.839 44.144 345.54 44.832 344.943 45.312C344.356 45.792 343.503 46.0267 342.383 46.016L338.991 46V37.6H340.127V40.528L342.607 40.56ZM342.319 45.152C343.098 45.1627 343.684 45.008 344.079 44.688C344.484 44.3573 344.687 43.8773 344.687 43.248C344.687 42.6187 344.49 42.16 344.095 41.872C343.7 41.5733 343.108 41.4187 342.319 41.408L340.127 41.376V45.12L342.319 45.152ZM351.527 46.08C350.695 46.08 349.948 45.8987 349.287 45.536C348.636 45.1627 348.124 44.656 347.751 44.016C347.377 43.3653 347.191 42.624 347.191 41.792C347.191 40.9493 347.377 40.208 347.751 39.568C348.124 38.928 348.636 38.4267 349.287 38.064C349.948 37.7013 350.695 37.52 351.527 37.52C352.241 37.52 352.887 37.6587 353.463 37.936C354.039 38.2133 354.492 38.6293 354.823 39.184L353.975 39.76C353.687 39.3333 353.329 39.0187 352.903 38.816C352.476 38.6133 352.012 38.512 351.511 38.512C350.913 38.512 350.375 38.6507 349.895 38.928C349.415 39.1947 349.036 39.5733 348.759 40.064C348.481 40.5547 348.343 41.1307 348.343 41.792C348.343 42.4533 348.481 43.0293 348.759 43.52C349.036 44.0107 349.415 44.3947 349.895 44.672C350.375 44.9387 350.913 45.072 351.511 45.072C352.012 45.072 352.476 44.9707 352.903 44.768C353.329 44.5653 353.687 44.256 353.975 43.84L354.823 44.416C354.492 44.96 354.039 45.376 353.463 45.664C352.887 45.9413 352.241 46.08 351.527 46.08ZM362.165 46V42.976L362.373 43.216H359.525C358.448 43.216 357.605 42.9813 356.997 42.512C356.389 42.0427 356.085 41.36 356.085 40.464C356.085 39.504 356.41 38.7893 357.061 38.32C357.712 37.84 358.581 37.6 359.669 37.6H363.205V46H362.165ZM356.021 46L358.325 42.768H359.509L357.253 46H356.021ZM362.165 42.64V38.256L362.373 38.592H359.701C358.922 38.592 358.314 38.7413 357.877 39.04C357.45 39.3387 357.237 39.824 357.237 40.496C357.237 41.744 358.032 42.368 359.621 42.368H362.373L362.165 42.64Z" fill="white"/>
<g clip-path="url(#clip0_124_1481)">
<mask id="mask0_124_1481" style="mask-type:alpha" maskUnits="userSpaceOnUse" x="30" y="71" width="360" height="48">
<rect x="30" y="71" width="360" height="48" fill="url(#paint0_linear_124_1481)"/>
</mask>
<g mask="url(#mask0_124_1481)">
</g>
<g clip-path="url(#clip1_124_1481)">
<path d="M-9.2 90.096C-10.0427 90.096 -10.8267 89.9573 -11.552 89.68C-12.2667 89.392 -12.8907 88.992 -13.424 88.48C-13.9467 87.9573 -14.3573 87.3547 -14.656 86.672C-14.944 85.9787 -15.088 85.2213 -15.088 84.4C-15.088 83.5787 -14.944 82.8267 -14.656 82.144C-14.3573 81.4507 -13.9467 80.848 -13.424 80.336C-12.8907 79.8133 -12.2667 79.4133 -11.552 79.136C-10.8373 78.848 -10.0533 78.704 -9.2 78.704C-8.35733 78.704 -7.57867 78.848 -6.864 79.136C-6.14933 79.4133 -5.53067 79.808 -5.008 80.32C-4.47467 80.832 -4.064 81.4347 -3.776 82.128C-3.47733 82.8213 -3.328 83.5787 -3.328 84.4C-3.328 85.2213 -3.47733 85.9787 -3.776 86.672C-4.064 87.3653 -4.47467 87.968 -5.008 88.48C-5.53067 88.992 -6.14933 89.392 -6.864 89.68C-7.57867 89.9573 -8.35733 90.096 -9.2 90.096ZM-9.2 89.04C-8.528 89.04 -7.90933 88.928 -7.344 88.704C-6.768 88.4693 -6.272 88.144 -5.856 87.728C-5.42933 87.3013 -5.09867 86.8107 -4.864 86.256C-4.62933 85.6907 -4.512 85.072 -4.512 84.4C-4.512 83.728 -4.62933 83.1147 -4.864 82.56C-5.09867 81.9947 -5.42933 81.504 -5.856 81.088C-6.272 80.6613 -6.768 80.336 -7.344 80.112C-7.90933 79.8773 -8.528 79.76 -9.2 79.76C-9.872 79.76 -10.496 79.8773 -11.072 80.112C-11.648 80.336 -12.1493 80.6613 -12.576 81.088C-12.992 81.504 -13.3227 81.9947 -13.568 82.56C-13.8027 83.1147 -13.92 83.728 -13.92 84.4C-13.92 85.0613 -13.8027 85.6747 -13.568 86.24C-13.3227 86.8053 -12.992 87.3013 -12.576 87.728C-12.1493 88.144 -11.648 88.4693 -11.072 88.704C-10.496 88.928 -9.872 89.04 -9.2 89.04ZM9.57288 90L6.11688 85.84L7.06088 85.28L10.9169 90H9.57288ZM3.41288 90V81.6H4.54888V90H3.41288ZM4.19688 86.256V85.28H6.90088V86.256H4.19688ZM7.15688 85.92L6.10088 85.76L9.44488 81.6H10.6769L7.15688 85.92ZM11.1738 89.984L11.2538 89.008C11.3284 89.0187 11.3978 89.0347 11.4618 89.056C11.5364 89.0667 11.6004 89.072 11.6538 89.072C11.9951 89.072 12.2671 88.944 12.4698 88.688C12.6831 88.432 12.8431 88.0907 12.9498 87.664C13.0564 87.2373 13.1311 86.7573 13.1738 86.224C13.2164 85.68 13.2538 85.136 13.2858 84.592L13.4298 81.6H19.5898V90H18.4538V82.256L18.7418 82.592H14.1658L14.4378 82.24L14.3098 84.672C14.2778 85.3973 14.2191 86.0907 14.1338 86.752C14.0591 87.4133 13.9364 87.9947 13.7658 88.496C13.6058 88.9973 13.3818 89.392 13.0938 89.68C12.8058 89.9573 12.4378 90.096 11.9898 90.096C11.8618 90.096 11.7284 90.0853 11.5898 90.064C11.4618 90.0427 11.3231 90.016 11.1738 89.984ZM22.8191 90V81.6H23.9551V88.272L29.5711 81.6H30.5791V90H29.4431V83.312L23.8431 90H22.8191ZM33.8348 90V81.6H34.9708V85.312H40.2668V81.6H41.4028V90H40.2668V86.288H34.9708V90H33.8348ZM44.6316 90V81.6H45.7676V88.272L51.3836 81.6H52.3916V90H51.2556V83.312L45.6556 90H44.6316ZM61.8073 90L58.3513 85.84L59.2953 85.28L63.1513 90H61.8073ZM55.6473 90V81.6H56.7833V90H55.6473ZM56.4313 86.256V85.28H59.1353V86.256H56.4313ZM59.3913 85.92L58.3353 85.76L61.6793 81.6H62.9113L59.3913 85.92ZM68.2473 90.08C67.3726 90.08 66.6046 89.8987 65.9433 89.536C65.2819 89.1627 64.7646 88.656 64.3913 88.016C64.0179 87.3653 63.8313 86.624 63.8313 85.792C63.8313 84.96 64.0073 84.224 64.3593 83.584C64.7219 82.944 65.2126 82.4427 65.8313 82.08C66.4606 81.7067 67.1646 81.52 67.9433 81.52C68.7326 81.52 69.4313 81.7013 70.0393 82.064C70.6579 82.416 71.1433 82.9173 71.4953 83.568C71.8473 84.208 72.0233 84.9493 72.0233 85.792C72.0233 85.8453 72.0179 85.904 72.0073 85.968C72.0073 86.0213 72.0073 86.08 72.0073 86.144H64.6953V85.296H71.3993L70.9513 85.632C70.9513 85.024 70.8179 84.4853 70.5513 84.016C70.2953 83.536 69.9433 83.1627 69.4953 82.896C69.0473 82.6293 68.5299 82.496 67.9433 82.496C67.3673 82.496 66.8499 82.6293 66.3913 82.896C65.9326 83.1627 65.5753 83.536 65.3193 84.016C65.0633 84.496 64.9353 85.0453 64.9353 85.664V85.84C64.9353 86.48 65.0739 87.0453 65.3513 87.536C65.6393 88.016 66.0339 88.3947 66.5353 88.672C67.0473 88.9387 67.6286 89.072 68.2793 89.072C68.7913 89.072 69.2659 88.9813 69.7033 88.8C70.1513 88.6187 70.5353 88.3413 70.8553 87.968L71.4953 88.704C71.1219 89.152 70.6526 89.4933 70.0873 89.728C69.5326 89.9627 68.9193 90.08 68.2473 90.08Z" fill="#22BBC7"/>
<path d="M94.696 88.896C95.24 89.1093 95.752 89.1627 96.232 89.056C96.712 88.9387 97.1547 88.56 97.56 87.92L98.104 87.056L98.216 86.912L102.504 78.8H103.688L98.6 88.176C98.2587 88.8267 97.8533 89.312 97.384 89.632C96.9253 89.952 96.4347 90.1227 95.912 90.144C95.4 90.1653 94.8827 90.0693 94.36 89.856L94.696 88.896ZM98.184 87.984L93.336 78.8H94.6L98.824 87.008L98.184 87.984ZM108.136 90.08C107.304 90.08 106.557 89.8987 105.896 89.536C105.245 89.1627 104.733 88.656 104.36 88.016C103.987 87.3653 103.8 86.624 103.8 85.792C103.8 84.9493 103.987 84.208 104.36 83.568C104.733 82.928 105.245 82.4267 105.896 82.064C106.557 81.7013 107.304 81.52 108.136 81.52C108.851 81.52 109.496 81.6587 110.072 81.936C110.648 82.2133 111.101 82.6293 111.432 83.184L110.584 83.76C110.296 83.3333 109.939 83.0187 109.512 82.816C109.085 82.6133 108.621 82.512 108.12 82.512C107.523 82.512 106.984 82.6507 106.504 82.928C106.024 83.1947 105.645 83.5733 105.368 84.064C105.091 84.5547 104.952 85.1307 104.952 85.792C104.952 86.4533 105.091 87.0293 105.368 87.52C105.645 88.0107 106.024 88.3947 106.504 88.672C106.984 88.9387 107.523 89.072 108.12 89.072C108.621 89.072 109.085 88.9707 109.512 88.768C109.939 88.5653 110.296 88.256 110.584 87.84L111.432 88.416C111.101 88.96 110.648 89.376 110.072 89.664C109.496 89.9413 108.851 90.08 108.136 90.08ZM111.799 89.984L111.879 89.008C111.953 89.0187 112.023 89.0347 112.087 89.056C112.161 89.0667 112.225 89.072 112.279 89.072C112.62 89.072 112.892 88.944 113.095 88.688C113.308 88.432 113.468 88.0907 113.575 87.664C113.681 87.2373 113.756 86.7573 113.799 86.224C113.841 85.68 113.879 85.136 113.911 84.592L114.055 81.6H120.215V90H119.079V82.256L119.367 82.592H114.791L115.063 82.24L114.935 84.672C114.903 85.3973 114.844 86.0907 114.759 86.752C114.684 87.4133 114.561 87.9947 114.391 88.496C114.231 88.9973 114.007 89.392 113.719 89.68C113.431 89.9573 113.063 90.096 112.615 90.096C112.487 90.096 112.353 90.0853 112.215 90.064C112.087 90.0427 111.948 90.016 111.799 89.984ZM123.588 93.184C123.193 93.184 122.815 93.12 122.452 92.992C122.1 92.864 121.796 92.672 121.54 92.416L122.068 91.568C122.281 91.7707 122.511 91.9253 122.756 92.032C123.012 92.1493 123.295 92.208 123.604 92.208C123.977 92.208 124.297 92.1013 124.564 91.888C124.841 91.6853 125.103 91.3227 125.348 90.8L125.892 89.568L126.02 89.392L129.476 81.6H130.596L126.388 91.008C126.153 91.552 125.892 91.984 125.604 92.304C125.327 92.624 125.023 92.848 124.692 92.976C124.361 93.1147 123.993 93.184 123.588 93.184ZM125.828 90.24L121.956 81.6H123.14L126.564 89.312L125.828 90.24ZM132.366 90V81.6H138.318V82.592H133.214L133.502 82.304V90H132.366ZM139.96 90V81.6H141.096V88.272L146.712 81.6H147.72V90H146.584V83.312L140.984 90H139.96Z" fill="#22BBC7"/>
<path d="M170.888 90V78.8H175.544C176.728 78.8 177.656 79.0453 178.328 79.536C179.011 80.016 179.352 80.7253 179.352 81.664C179.352 82.592 179.027 83.296 178.376 83.776C177.725 84.2453 176.872 84.48 175.816 84.48L176.088 84.08C177.336 84.08 178.285 84.3253 178.936 84.816C179.587 85.3067 179.912 86.0267 179.912 86.976C179.912 87.936 179.571 88.6827 178.888 89.216C178.216 89.7387 177.203 90 175.848 90H170.888ZM172.056 89.056H175.848C176.797 89.056 177.517 88.88 178.008 88.528C178.499 88.176 178.744 87.632 178.744 86.896C178.744 86.1707 178.499 85.6373 178.008 85.296C177.517 84.9547 176.797 84.784 175.848 84.784H172.056V89.056ZM172.056 83.872H175.48C176.344 83.872 177.005 83.7013 177.464 83.36C177.933 83.008 178.168 82.4907 178.168 81.808C178.168 81.1253 177.933 80.6133 177.464 80.272C177.005 79.92 176.344 79.744 175.48 79.744H172.056V83.872ZM186.936 90.08C186.211 90.08 185.555 89.9147 184.968 89.584C184.382 89.2427 183.912 88.7573 183.56 88.128C183.219 87.488 183.048 86.7093 183.048 85.792C183.048 84.8747 183.219 84.1013 183.56 83.472C183.902 82.832 184.366 82.3467 184.952 82.016C185.539 81.6853 186.2 81.52 186.936 81.52C187.736 81.52 188.451 81.7013 189.08 82.064C189.72 82.416 190.222 82.9173 190.584 83.568C190.947 84.208 191.128 84.9493 191.128 85.792C191.128 86.6453 190.947 87.392 190.584 88.032C190.222 88.672 189.72 89.1733 189.08 89.536C188.451 89.8987 187.736 90.08 186.936 90.08ZM182.6 93.104V81.6H183.688V84.128L183.576 85.808L183.736 87.504V93.104H182.6ZM186.856 89.072C187.454 89.072 187.987 88.9387 188.456 88.672C188.926 88.3947 189.299 88.0107 189.576 87.52C189.854 87.0187 189.992 86.4427 189.992 85.792C189.992 85.1413 189.854 84.5707 189.576 84.08C189.299 83.5893 188.926 83.2053 188.456 82.928C187.987 82.6507 187.454 82.512 186.856 82.512C186.259 82.512 185.72 82.6507 185.24 82.928C184.771 83.2053 184.398 83.5893 184.12 84.08C183.854 84.5707 183.72 85.1413 183.72 85.792C183.72 86.4427 183.854 87.0187 184.12 87.52C184.398 88.0107 184.771 88.3947 185.24 88.672C185.72 88.9387 186.259 89.072 186.856 89.072ZM198.738 90V88.144L198.69 87.84V84.736C198.69 84.0213 198.488 83.472 198.082 83.088C197.688 82.704 197.096 82.512 196.306 82.512C195.762 82.512 195.245 82.6027 194.754 82.784C194.264 82.9653 193.848 83.2053 193.506 83.504L192.994 82.656C193.421 82.2933 193.933 82.016 194.53 81.824C195.128 81.6213 195.757 81.52 196.418 81.52C197.506 81.52 198.344 81.792 198.93 82.336C199.528 82.8693 199.826 83.6853 199.826 84.784V90H198.738ZM195.842 90.08C195.213 90.08 194.664 89.9787 194.194 89.776C193.736 89.5627 193.384 89.2747 193.138 88.912C192.893 88.5387 192.77 88.112 192.77 87.632C192.77 87.1947 192.872 86.8 193.074 86.448C193.288 86.0853 193.629 85.7973 194.098 85.584C194.578 85.36 195.218 85.248 196.018 85.248H198.914V86.096H196.05C195.24 86.096 194.674 86.24 194.354 86.528C194.045 86.816 193.89 87.1733 193.89 87.6C193.89 88.08 194.077 88.464 194.45 88.752C194.824 89.04 195.346 89.184 196.018 89.184C196.658 89.184 197.208 89.04 197.666 88.752C198.136 88.4533 198.477 88.0267 198.69 87.472L198.946 88.256C198.733 88.8107 198.36 89.2533 197.826 89.584C197.304 89.9147 196.642 90.08 195.842 90.08ZM208.162 86.448C207.672 86.6613 207.176 86.832 206.674 86.96C206.184 87.0773 205.693 87.136 205.202 87.136C204.21 87.136 203.426 86.912 202.85 86.464C202.274 86.0053 201.986 85.3013 201.986 84.352V81.6H203.106V84.288C203.106 84.928 203.314 85.408 203.73 85.728C204.146 86.048 204.706 86.208 205.41 86.208C205.837 86.208 206.285 86.1547 206.754 86.048C207.224 85.9307 207.698 85.7653 208.178 85.552L208.162 86.448ZM208.066 90V81.6H209.202V90H208.066ZM212.429 90V81.6H213.565V88.272L219.181 81.6H220.189V90H219.053V83.312L213.453 90H212.429Z" fill="#22BBC7"/>
<path d="M248.8 90.096C247.957 90.096 247.173 89.9573 246.448 89.68C245.733 89.392 245.109 88.992 244.576 88.48C244.053 87.9573 243.643 87.3547 243.344 86.672C243.056 85.9787 242.912 85.2213 242.912 84.4C242.912 83.5787 243.056 82.8267 243.344 82.144C243.643 81.4507 244.053 80.848 244.576 80.336C245.109 79.8133 245.733 79.4133 246.448 79.136C247.163 78.848 247.947 78.704 248.8 78.704C249.643 78.704 250.421 78.848 251.136 79.136C251.851 79.4133 252.469 79.808 252.992 80.32C253.525 80.832 253.936 81.4347 254.224 82.128C254.523 82.8213 254.672 83.5787 254.672 84.4C254.672 85.2213 254.523 85.9787 254.224 86.672C253.936 87.3653 253.525 87.968 252.992 88.48C252.469 88.992 251.851 89.392 251.136 89.68C250.421 89.9573 249.643 90.096 248.8 90.096ZM248.8 89.04C249.472 89.04 250.091 88.928 250.656 88.704C251.232 88.4693 251.728 88.144 252.144 87.728C252.571 87.3013 252.901 86.8107 253.136 86.256C253.371 85.6907 253.488 85.072 253.488 84.4C253.488 83.728 253.371 83.1147 253.136 82.56C252.901 81.9947 252.571 81.504 252.144 81.088C251.728 80.6613 251.232 80.336 250.656 80.112C250.091 79.8773 249.472 79.76 248.8 79.76C248.128 79.76 247.504 79.8773 246.928 80.112C246.352 80.336 245.851 80.6613 245.424 81.088C245.008 81.504 244.677 81.9947 244.432 82.56C244.197 83.1147 244.08 83.728 244.08 84.4C244.08 85.0613 244.197 85.6747 244.432 86.24C244.677 86.8053 245.008 87.3013 245.424 87.728C245.851 88.144 246.352 88.4693 246.928 88.704C247.504 88.928 248.128 89.04 248.8 89.04ZM258.591 90V82.288L258.879 82.592H255.407V81.6H262.911V82.592H259.439L259.727 82.288V90H258.591ZM266.575 90.096C265.967 90.096 265.364 90.0107 264.767 89.84C264.17 89.6693 263.642 89.408 263.183 89.056L263.551 88.208C263.956 88.5067 264.426 88.736 264.959 88.896C265.492 89.0453 266.02 89.12 266.543 89.12C267.066 89.1093 267.519 89.0347 267.903 88.896C268.287 88.7573 268.586 88.5653 268.799 88.32C269.012 88.0747 269.119 87.7973 269.119 87.488C269.119 87.04 268.916 86.6933 268.511 86.448C268.106 86.192 267.551 86.064 266.847 86.064H265.407V85.232H266.767C267.183 85.232 267.551 85.1787 267.871 85.072C268.191 84.9653 268.436 84.8107 268.607 84.608C268.788 84.4053 268.879 84.1653 268.879 83.888C268.879 83.5893 268.772 83.3333 268.559 83.12C268.356 82.9067 268.074 82.7467 267.711 82.64C267.348 82.5333 266.938 82.48 266.479 82.48C266.063 82.4907 265.631 82.5547 265.183 82.672C264.735 82.7787 264.292 82.944 263.855 83.168L263.535 82.288C264.026 82.032 264.511 81.84 264.991 81.712C265.482 81.5733 265.972 81.504 266.463 81.504C267.135 81.4827 267.738 81.5627 268.271 81.744C268.815 81.9253 269.247 82.1867 269.567 82.528C269.887 82.8587 270.047 83.2587 270.047 83.728C270.047 84.144 269.919 84.5067 269.663 84.816C269.407 85.1253 269.066 85.3653 268.639 85.536C268.212 85.7067 267.727 85.792 267.183 85.792L267.231 85.488C268.191 85.488 268.938 85.6747 269.471 86.048C270.015 86.4213 270.287 86.928 270.287 87.568C270.287 88.0693 270.122 88.512 269.791 88.896C269.46 89.2693 269.012 89.5627 268.447 89.776C267.892 89.9893 267.268 90.096 266.575 90.096ZM281.058 90V81.6H282.194V90H281.058ZM276.402 84.56C277.458 84.5707 278.263 84.8053 278.818 85.264C279.373 85.7227 279.65 86.384 279.65 87.248C279.65 88.144 279.351 88.832 278.754 89.312C278.157 89.792 277.303 90.0267 276.194 90.016L272.866 90V81.6H274.002V84.528L276.402 84.56ZM276.114 89.152C276.903 89.1627 277.495 89.008 277.89 88.688C278.295 88.3573 278.498 87.8773 278.498 87.248C278.498 86.6187 278.301 86.16 277.906 85.872C277.511 85.5733 276.914 85.4187 276.114 85.408L274.002 85.376V89.12L276.114 89.152ZM285.429 90V81.6H289.141C290.09 81.6 290.837 81.7813 291.381 82.144C291.935 82.5067 292.213 83.04 292.213 83.744C292.213 84.4267 291.951 84.9547 291.429 85.328C290.906 85.6907 290.218 85.872 289.365 85.872L289.589 85.536C290.591 85.536 291.327 85.7227 291.797 86.096C292.266 86.4693 292.501 87.008 292.501 87.712C292.501 88.4373 292.234 89.0027 291.701 89.408C291.178 89.8027 290.362 90 289.253 90H285.429ZM286.533 89.104H289.205C289.919 89.104 290.458 88.992 290.821 88.768C291.194 88.5333 291.381 88.16 291.381 87.648C291.381 87.136 291.215 86.7627 290.885 86.528C290.554 86.2933 290.031 86.176 289.317 86.176H286.533V89.104ZM286.533 85.328H289.061C289.711 85.328 290.207 85.2053 290.549 84.96C290.901 84.7147 291.077 84.3573 291.077 83.888C291.077 83.4187 290.901 83.0667 290.549 82.832C290.207 82.5973 289.711 82.48 289.061 82.48H286.533V85.328ZM303.355 90V81.6H304.491V90H303.355ZM298.699 84.56C299.755 84.5707 300.56 84.8053 301.115 85.264C301.67 85.7227 301.947 86.384 301.947 87.248C301.947 88.144 301.648 88.832 301.051 89.312C300.454 89.792 299.6 90.0267 298.491 90.016L295.163 90V81.6H296.299V84.528L298.699 84.56ZM298.411 89.152C299.2 89.1627 299.792 89.008 300.187 88.688C300.592 88.3573 300.795 87.8773 300.795 87.248C300.795 86.6187 300.598 86.16 300.203 85.872C299.808 85.5733 299.211 85.4187 298.411 85.408L296.299 85.376V89.12L298.411 89.152Z" fill="#22BBC7"/>
<path d="M327.888 90V78.8H337.312V90H336.144V79.504L336.448 79.824H328.752L329.056 79.504V90H327.888ZM346.035 90V88.144L345.987 87.84V84.736C345.987 84.0213 345.784 83.472 345.379 83.088C344.984 82.704 344.392 82.512 343.603 82.512C343.059 82.512 342.542 82.6027 342.051 82.784C341.56 82.9653 341.144 83.2053 340.803 83.504L340.291 82.656C340.718 82.2933 341.23 82.016 341.827 81.824C342.424 81.6213 343.054 81.52 343.715 81.52C344.803 81.52 345.64 81.792 346.227 82.336C346.824 82.8693 347.123 83.6853 347.123 84.784V90H346.035ZM343.139 90.08C342.51 90.08 341.96 89.9787 341.491 89.776C341.032 89.5627 340.68 89.2747 340.435 88.912C340.19 88.5387 340.067 88.112 340.067 87.632C340.067 87.1947 340.168 86.8 340.371 86.448C340.584 86.0853 340.926 85.7973 341.395 85.584C341.875 85.36 342.515 85.248 343.315 85.248H346.211V86.096H343.347C342.536 86.096 341.971 86.24 341.651 86.528C341.342 86.816 341.187 87.1733 341.187 87.6C341.187 88.08 341.374 88.464 341.747 88.752C342.12 89.04 342.643 89.184 343.315 89.184C343.955 89.184 344.504 89.04 344.963 88.752C345.432 88.4533 345.774 88.0267 345.987 87.472L346.243 88.256C346.03 88.8107 345.656 89.2533 345.123 89.584C344.6 89.9147 343.939 90.08 343.139 90.08ZM350.147 90V81.6H351.283V89.008H356.419V81.6H357.555V90H350.147ZM357.843 92.032V89.904L358.131 90H356.419V89.008H358.915V92.032H357.843ZM361.085 90V81.6H362.221V88.272L367.837 81.6H368.845V90H367.709V83.312L362.109 90H361.085ZM375.7 90.08C374.826 90.08 374.058 89.8987 373.396 89.536C372.735 89.1627 372.218 88.656 371.844 88.016C371.471 87.3653 371.284 86.624 371.284 85.792C371.284 84.96 371.46 84.224 371.812 83.584C372.175 82.944 372.666 82.4427 373.284 82.08C373.914 81.7067 374.618 81.52 375.396 81.52C376.186 81.52 376.884 81.7013 377.492 82.064C378.111 82.416 378.596 82.9173 378.948 83.568C379.3 84.208 379.476 84.9493 379.476 85.792C379.476 85.8453 379.471 85.904 379.46 85.968C379.46 86.0213 379.46 86.08 379.46 86.144H372.148V85.296H378.852L378.404 85.632C378.404 85.024 378.271 84.4853 378.004 84.016C377.748 83.536 377.396 83.1627 376.948 82.896C376.5 82.6293 375.983 82.496 375.396 82.496C374.82 82.496 374.303 82.6293 373.844 82.896C373.386 83.1627 373.028 83.536 372.772 84.016C372.516 84.496 372.388 85.0453 372.388 85.664V85.84C372.388 86.48 372.527 87.0453 372.804 87.536C373.092 88.016 373.487 88.3947 373.988 88.672C374.5 88.9387 375.082 89.072 375.732 89.072C376.244 89.072 376.719 88.9813 377.156 88.8C377.604 88.6187 377.988 88.3413 378.308 87.968L378.948 88.704C378.575 89.152 378.106 89.4933 377.54 89.728C376.986 89.9627 376.372 90.08 375.7 90.08ZM381.991 90V81.6H383.127V85.312H388.423V81.6H389.559V90H388.423V86.288H383.127V90H381.991ZM394.388 90V82.288L394.676 82.592H391.204V81.6H398.708V82.592H395.236L395.524 82.288V90H394.388ZM405.566 90V88.144L405.518 87.84V84.736C405.518 84.0213 405.316 83.472 404.91 83.088C404.516 82.704 403.924 82.512 403.134 82.512C402.59 82.512 402.073 82.6027 401.582 82.784C401.092 82.9653 400.676 83.2053 400.334 83.504L399.822 82.656C400.249 82.2933 400.761 82.016 401.358 81.824C401.956 81.6213 402.585 81.52 403.246 81.52C404.334 81.52 405.172 81.792 405.758 82.336C406.356 82.8693 406.654 83.6853 406.654 84.784V90H405.566ZM402.67 90.08C402.041 90.08 401.492 89.9787 401.022 89.776C400.564 89.5627 400.212 89.2747 399.966 88.912C399.721 88.5387 399.598 88.112 399.598 87.632C399.598 87.1947 399.7 86.8 399.902 86.448C400.116 86.0853 400.457 85.7973 400.926 85.584C401.406 85.36 402.046 85.248 402.846 85.248H405.742V86.096H402.878C402.068 86.096 401.502 86.24 401.182 86.528C400.873 86.816 400.718 87.1733 400.718 87.6C400.718 88.08 400.905 88.464 401.278 88.752C401.652 89.04 402.174 89.184 402.846 89.184C403.486 89.184 404.036 89.04 404.494 88.752C404.964 88.4533 405.305 88.0267 405.518 87.472L405.774 88.256C405.561 88.8107 405.188 89.2533 404.654 89.584C404.132 89.9147 403.47 90.08 402.67 90.08ZM409.679 90V81.6H410.831L414.639 88.048H414.159L418.031 81.6H419.087V90H418.047V82.896L418.255 82.992L414.639 88.976H414.127L410.479 82.928L410.719 82.88V90H409.679Z" fill="#22BBC7"/>
</g>
</g>
<defs>
<linearGradient id="paint0_linear_124_1481" x1="30" y1="95" x2="390" y2="95" gradientUnits="userSpaceOnUse">
<stop stop-opacity="0"/>
<stop offset="0.0166667" stop-opacity="0.25"/>
<stop offset="0.0333333"/>
<stop offset="0.933333"/>
<stop offset="0.966667" stop-opacity="0.25"/>
<stop offset="1" stop-opacity="0"/>
</linearGradient>
<clipPath id="clip0_124_1481">
<rect width="360" height="24" fill="white" transform="translate(30 71)"/>
</clipPath>
<clipPath id="clip1_124_1481">
<rect width="360" height="48" fill="white" transform="translate(30 71)"/>
</clipPath>
</defs>
</svg>
