<svg width="1920" height="107" viewBox="0 0 1920 107" fill="none" xmlns="http://www.w3.org/2000/svg">
<rect width="1920" height="107" fill="white"/>
<path d="M411.725 67.4414H406V60.146H407.531V66.0885H410.66V60.1394H412.191V66.0885H413.189V69H411.725V67.4414ZM416.591 60.1394H421.623V61.4923H418.122V62.9713H420.691V64.2447H418.122V66.0885H421.756V67.4414H416.591V60.146V60.1394ZM425.351 60.1394H426.882V62.9382H430.19V60.1394H431.721V67.4348H430.19V64.2911H426.882V67.4414H425.351V60.146V60.1394ZM437.386 61.4923H434.997V60.146H441.32V61.4923H438.924V67.4414H437.393V61.4923H437.386ZM447.411 63.5616C447.764 63.5616 448.044 63.4621 448.243 63.2698C448.443 63.0708 448.543 62.8121 448.543 62.5004C448.543 62.1887 448.443 61.9367 448.237 61.7444C448.037 61.552 447.757 61.4592 447.411 61.4592H446.133V63.5616H447.411ZM444.602 60.1394H447.411C447.93 60.1394 448.396 60.2389 448.809 60.4378C449.204 60.617 449.537 60.907 449.769 61.2721C450.001 61.6373 450.121 62.0618 450.114 62.4938C450.123 62.9289 450.004 63.3572 449.771 63.7252C449.538 64.0932 449.201 64.3846 448.803 64.5631C448.403 64.762 447.937 64.8615 447.405 64.8615H446.133V67.4414H444.602V60.146V60.1394ZM460.239 67.0767C459.645 66.7562 459.148 66.2822 458.801 65.7045C458.455 65.1269 458.271 64.4668 458.268 63.7937C458.268 63.0907 458.448 62.454 458.801 61.8704C459.153 61.2974 459.651 60.8281 460.245 60.5108C460.858 60.1792 461.53 60.0134 462.262 60.0134C462.968 60.0134 463.614 60.1725 464.193 60.4909C464.76 60.8015 465.232 61.26 465.557 61.8173L464.406 62.6198C464.191 62.2434 463.879 61.9311 463.502 61.7154C463.125 61.4996 462.697 61.3883 462.262 61.3929C461.796 61.3929 461.384 61.4923 461.018 61.7046C460.656 61.9055 460.357 62.2014 460.152 62.5601C459.943 62.9397 459.837 63.3674 459.846 63.8004C459.846 64.2646 459.952 64.6824 460.159 65.0406C460.365 65.4053 460.651 65.6839 461.024 65.8895C461.384 66.0885 461.796 66.1879 462.262 66.1879C463.161 66.1879 463.873 65.7834 464.406 64.961L465.557 65.7568C465.238 66.3187 464.768 66.7804 464.199 67.0899C463.602 67.4171 462.93 67.584 462.249 67.5741C461.547 67.5812 460.855 67.41 460.239 67.0767ZM470.816 61.4923H468.426V60.146H474.75V61.4923H472.354V67.4414H470.823V61.4923H470.816ZM482.658 65.8895C483.03 65.6836 483.337 65.3783 483.544 65.008C483.751 64.6377 483.85 64.2171 483.83 63.7937C483.836 63.3623 483.728 62.9368 483.517 62.5601C483.317 62.1988 483.019 61.9003 482.658 61.6979C482.282 61.4902 481.857 61.385 481.427 61.3929C480.961 61.3929 480.562 61.4923 480.195 61.6979C479.829 61.8969 479.543 62.1821 479.337 62.5469C479.124 62.9278 479.016 63.3579 479.024 63.7937C479.024 64.258 479.13 64.6692 479.337 65.0339C479.541 65.403 479.845 65.7071 480.215 65.9113C480.585 66.1155 481.005 66.2114 481.427 66.1879C481.88 66.1879 482.292 66.0885 482.658 65.8895ZM481.42 67.5741C480.723 67.5819 480.035 67.4106 479.423 67.0767C478.831 66.7535 478.337 66.2789 477.991 65.7018C477.644 65.1247 477.459 64.4661 477.453 63.7937C477.453 63.0907 477.626 62.454 477.985 61.8704C478.335 61.2964 478.831 60.825 479.423 60.5041C480.022 60.1725 480.688 60.0067 481.42 60.0067C482.146 60.0067 482.812 60.1792 483.417 60.5041C484.03 60.8358 484.509 61.3 484.868 61.8704C485.228 62.454 485.408 63.0907 485.408 63.7937C485.408 64.4901 485.228 65.1334 484.868 65.7104C484.515 66.2857 484.014 66.7572 483.417 67.0767C482.812 67.4083 482.146 67.5741 481.42 67.5741ZM496.291 60.0134V67.4414H494.76V63.5483L492.876 65.8497H492.377L490.5 63.5483V67.4414H488.969V60.0134H489.468L492.63 63.9595L495.792 60.0134H496.291ZM503.154 62.7989L502.156 65.2594H504.153L503.154 62.7989ZM504.685 66.4864H501.623L501.211 67.4414H499.56L502.901 60.0134H503.414L506.742 67.4414H505.105L504.685 66.4864ZM510.876 61.4923H508.486V60.146H514.81V61.4923H512.414V67.4414H510.876V61.4923ZM522.718 65.8895C523.09 65.6836 523.397 65.3783 523.604 65.008C523.811 64.6377 523.91 64.2171 523.89 63.7937C523.896 63.3623 523.788 62.9368 523.577 62.5601C523.377 62.1988 523.079 61.9003 522.718 61.6979C522.342 61.4902 521.917 61.385 521.487 61.3929C521.021 61.3929 520.622 61.4923 520.255 61.6979C519.889 61.8969 519.603 62.1821 519.397 62.5469C519.184 62.9278 519.076 63.3579 519.084 63.7937C519.084 64.258 519.19 64.6692 519.397 65.0339C519.601 65.403 519.905 65.7071 520.275 65.9113C520.645 66.1155 521.065 66.2114 521.487 66.1879C521.94 66.1879 522.352 66.0885 522.718 65.8895ZM521.48 67.5741C520.783 67.5819 520.095 67.4106 519.483 67.0767C518.891 66.7535 518.397 66.2789 518.051 65.7018C517.704 65.1247 517.519 64.4661 517.513 63.7937C517.513 63.0907 517.686 62.454 518.045 61.8704C518.395 61.2964 518.891 60.825 519.483 60.5041C520.082 60.1725 520.748 60.0067 521.48 60.0067C522.206 60.0067 522.871 60.1792 523.477 60.5041C524.09 60.8358 524.569 61.3 524.928 61.8704C525.288 62.454 525.468 63.0907 525.468 63.7937C525.468 64.4901 525.288 65.1334 524.928 65.7104C524.575 66.2857 524.074 66.7572 523.477 67.0767C522.871 67.4083 522.206 67.5741 521.48 67.5741ZM534.907 60.1394V67.4348H533.376V61.4923H531.226C531.233 62.7152 531.128 63.9361 530.913 65.1401C530.819 65.8211 530.548 66.4659 530.127 67.0103C529.958 67.1879 529.754 67.3276 529.526 67.4203C529.299 67.5129 529.055 67.5563 528.809 67.5475C528.59 67.5475 528.377 67.5144 528.164 67.4414V66.168C528.21 66.1813 528.31 66.1879 528.47 66.1879C528.776 66.1879 529.016 66.0221 529.202 65.6905C529.388 65.3589 529.522 64.8549 529.608 64.1718C529.695 63.4886 529.741 62.5999 529.761 61.4923L529.774 60.1394H534.907ZM543.68 65.8895C544.046 65.6839 544.333 65.3987 544.539 65.0339C544.745 64.6692 544.852 64.258 544.852 63.7937C544.858 63.3623 544.75 62.9368 544.539 62.5601C544.337 62.1982 544.037 61.8996 543.674 61.6979C543.299 61.4917 542.877 61.3865 542.449 61.3929C541.983 61.3929 541.577 61.4923 541.211 61.6979C540.851 61.8969 540.565 62.1821 540.359 62.5469C540.146 62.9278 540.038 63.3579 540.046 63.7937C540.046 64.258 540.152 64.6692 540.359 65.0339C540.558 65.3987 540.851 65.6839 541.211 65.8895C541.577 66.0885 541.989 66.1879 542.449 66.1879C542.901 66.1879 543.314 66.0885 543.68 65.8895ZM542.435 67.5741C541.738 67.5819 541.05 67.4106 540.438 67.0767C539.846 66.7563 539.35 66.2848 539.001 65.7104C538.645 65.1321 538.46 64.4654 538.468 63.7871C538.468 63.0907 538.648 62.454 539.001 61.8704C539.352 61.2957 539.851 60.8243 540.445 60.5041C541.058 60.1733 541.745 60 542.442 60C543.14 60 543.826 60.1733 544.439 60.5041C545.044 60.8147 545.55 61.287 545.9 61.868C546.251 62.4491 546.432 63.1159 546.423 63.7937C546.431 64.4699 546.246 65.1344 545.89 65.7104C545.536 66.2857 545.036 66.7572 544.439 67.0767C543.827 67.4083 543.161 67.5741 542.442 67.5741H542.435ZM549.984 60.1394H554.797V61.4923H551.515V67.4414H549.984V60.146V60.1394ZM564.609 60.0134V67.4414H563.078V62.9183L558.691 67.5741H558.192V60.146H559.723V64.6227L564.096 60.0134H564.609ZM575 60.0134V67.4414H573.469V62.9183L569.089 67.5741H568.59V60.146H570.121V64.6227L574.494 60.0134H575Z" fill="#57585A"/>
<path d="M405.445 53.7661H409.043V41.1913H416.107V53.7661H419.706V38.2693H405.445V53.7661ZM437.811 48.0362C437.577 48.6234 437.227 49.1558 436.781 49.6006C436.336 50.0453 435.805 50.3931 435.222 50.6224C434.609 50.8638 433.955 50.9846 433.297 50.9784C432.63 50.9858 431.967 50.865 431.345 50.6224C430.759 50.3958 430.228 50.0473 429.784 49.5994C429.34 49.1516 428.994 48.6145 428.769 48.0228C428.518 47.3862 428.392 46.7064 428.397 46.0211C428.397 45.2822 428.523 44.6104 428.769 44.0059C429.002 43.4177 429.353 42.8842 429.798 42.4383C430.243 41.9923 430.774 41.6434 431.358 41.413C431.974 41.1732 432.63 41.0546 433.29 41.0637C433.994 41.0637 434.638 41.1779 435.235 41.413C435.821 41.6392 436.353 41.9867 436.798 42.4332C437.242 42.8798 437.59 43.4154 437.818 44.0059C438.064 44.6104 438.183 45.2822 438.183 46.0211C438.183 46.76 438.064 47.4317 437.818 48.0362H437.811ZM439.405 40.2845C438.619 39.5517 437.698 38.9812 436.696 38.6052C435.667 38.2021 434.525 38.0006 433.29 38.0006C432.068 38.0006 430.94 38.2021 429.897 38.6052C428.855 39.0082 427.945 39.5658 427.169 40.2845C426.384 41.0117 425.761 41.8992 425.341 42.8881C424.921 43.877 424.714 44.9449 424.732 46.0211C424.715 47.0958 424.923 48.162 425.34 49.1503C425.758 50.1387 426.376 51.027 427.155 51.7576C427.946 52.4941 428.874 53.0648 429.884 53.4369C430.933 53.8333 432.075 54.0348 433.317 54.0348C434.532 54.0348 435.66 53.8333 436.703 53.4302C437.7 53.0533 438.617 52.488 439.405 51.7643C440.187 51.0335 440.809 50.1446 441.229 49.1552C441.65 48.1659 441.861 47.0981 441.848 46.0211C441.861 44.945 441.65 43.8783 441.229 42.89C440.808 41.9018 440.187 41.0141 439.405 40.2845ZM450.174 50.2933C450.44 49.8029 450.645 49.2118 450.811 48.5132C450.977 47.8079 451.097 47.0354 451.183 46.1756C451.268 45.2705 451.33 44.3634 451.369 43.4551L451.435 41.1913H456.8V50.8441H449.796C449.928 50.6829 450.061 50.5082 450.174 50.2933ZM460.379 38.2693H448.355L448.176 43.1192C448.136 44.1467 448.065 45.1727 447.963 46.1957C447.885 47.0304 447.73 47.8559 447.498 48.6609C447.347 49.2613 447.063 49.8193 446.668 50.2933C446.502 50.4797 446.296 50.626 446.066 50.7214C445.837 50.8167 445.589 50.8586 445.341 50.8441H444.843L444.823 56.9769H448.176V53.7661H459.217V56.9769H462.57V50.8441H460.379V38.2693ZM481.85 38.2693L476.087 47.8952L470.232 38.2693H467.237V53.7661H470.63V44.6642L475.238 52.1271H476.844L481.452 44.503L481.472 53.7728H484.865L484.845 38.2693H481.857H481.85ZM502.984 48.0362C502.749 48.6232 502.398 49.1554 501.953 49.6001C501.508 50.0449 500.977 50.3928 500.394 50.6224C499.797 50.8575 499.153 50.9784 498.456 50.9784C497.791 50.9849 497.131 50.8641 496.51 50.6224C495.923 50.3969 495.39 50.0489 494.945 49.601C494.5 49.1531 494.153 48.6153 493.927 48.0228C493.679 47.3858 493.555 46.706 493.562 46.0211C493.562 45.2822 493.688 44.6104 493.934 44.0059C494.168 43.4177 494.518 42.8842 494.964 42.4383C495.409 41.9923 495.94 41.6434 496.523 41.413C497.138 41.1742 497.791 41.0557 498.449 41.0637C499.153 41.0637 499.803 41.1779 500.401 41.413C500.986 41.6396 501.518 41.9872 501.963 42.4337C502.407 42.8802 502.755 43.4156 502.984 44.0059C503.229 44.6104 503.349 45.2822 503.349 46.0211C503.349 46.76 503.229 47.4317 502.984 48.0362ZM504.564 40.2845C503.779 39.5523 502.862 38.9819 501.862 38.6052C500.826 38.2021 499.69 38.0006 498.456 38.0006C497.234 38.0006 496.099 38.2021 495.063 38.6052C494.014 39.0082 493.111 39.5658 492.334 40.2845C491.55 41.012 490.928 41.8995 490.507 42.8883C490.087 43.8772 489.88 44.9449 489.897 46.0211C489.881 47.0958 490.088 48.162 490.505 49.1503C490.923 50.1387 491.542 51.027 492.321 51.7576C493.11 52.4932 494.035 53.0639 495.043 53.4369C496.099 53.8333 497.241 54.0348 498.475 54.0348C499.697 54.0348 500.826 53.8333 501.862 53.4302C502.861 53.055 503.781 52.4895 504.57 51.7643C505.354 51.0348 505.977 50.1462 506.398 49.1565C506.819 48.1668 507.029 47.0984 507.014 46.0211C507.026 44.9445 506.814 43.8775 506.392 42.8892C505.97 41.9009 505.347 41.0135 504.564 40.2845ZM516.043 42.434C516.497 41.9863 517.037 41.6387 517.63 41.413C518.977 40.9061 520.465 40.9422 521.786 41.5138C522.471 41.837 523.082 42.3015 523.579 42.8774L525.903 40.748C525.159 39.8514 524.211 39.1507 523.141 38.7059C522.045 38.2357 520.817 38.0073 519.463 38.0073C518.241 38.0073 517.119 38.2021 516.09 38.5917C515.061 38.9813 514.164 39.5389 513.394 40.2643C512.613 40.9975 511.993 41.8891 511.575 42.8811C511.158 43.8731 510.952 44.943 510.971 46.0211C510.946 47.6444 511.425 49.2347 512.341 50.5676C513.257 51.9006 514.564 52.9089 516.076 53.4504C517.112 53.8333 518.234 54.0348 519.443 54.0348C520.81 54.0348 522.045 53.7997 523.141 53.3227C524.236 52.8525 525.152 52.1674 525.903 51.2673L523.579 49.1379C523.097 49.7165 522.495 50.1807 521.816 50.4977C521.136 50.8146 520.396 50.9764 519.648 50.9717C518.96 50.9823 518.276 50.8639 517.63 50.6224C517.04 50.3962 516.502 50.0492 516.051 49.603C515.6 49.1568 515.245 48.6211 515.007 48.0295C514.754 47.3891 514.627 46.7043 514.636 46.0143C514.636 45.2754 514.762 44.6037 515.007 43.9992C515.253 43.3946 515.598 42.8774 516.043 42.434ZM544.579 38.2693H540.762L536.658 44.5365H534.056V38.2693H530.457V53.7661H534.056V47.519H536.546L540.629 53.7661H544.739L539.467 45.7524L544.579 38.2693ZM560.593 48.0362C560.359 48.6232 560.008 49.1554 559.563 49.6001C559.118 50.0449 558.587 50.3928 558.004 50.6224C557.407 50.8575 556.769 50.9784 556.065 50.9784C555.403 50.9841 554.745 50.8633 554.127 50.6224C553.539 50.3977 553.004 50.0501 552.558 49.6021C552.112 49.1542 551.764 48.616 551.537 48.0228C551.288 47.3859 551.164 46.706 551.172 46.0211C551.172 45.2822 551.298 44.6104 551.544 44.0059C551.778 43.4177 552.128 42.8842 552.573 42.4383C553.019 41.9923 553.55 41.6434 554.133 41.413C554.75 41.1734 555.405 41.0548 556.065 41.0637C556.769 41.0637 557.413 41.1779 558.011 41.413C558.596 41.6396 559.128 41.9872 559.573 42.4337C560.017 42.8802 560.365 43.4156 560.593 44.0059C560.839 44.6104 560.965 45.2822 560.965 46.0211C560.965 46.76 560.832 47.4317 560.593 48.0362ZM562.18 40.2845C561.396 39.5523 560.478 38.9819 559.478 38.6052C558.387 38.1921 557.23 37.9871 556.065 38.0006C554.844 38.0006 553.715 38.2021 552.673 38.6052C551.63 39.0082 550.721 39.5658 549.944 40.2845C549.16 41.012 548.537 41.8995 548.117 42.8883C547.697 43.8772 547.489 44.9449 547.507 46.0211C547.491 47.0958 547.698 48.162 548.115 49.1503C548.533 50.1387 549.151 51.027 549.931 51.7576C550.722 52.4939 551.649 53.0647 552.659 53.4369C553.708 53.8333 554.85 54.0348 556.092 54.0348C557.314 54.0348 558.442 53.8333 559.478 53.4302C560.476 53.055 561.393 52.4894 562.18 51.7643C562.964 51.0349 563.588 50.1464 564.01 49.1568C564.432 48.1672 564.643 47.0988 564.63 46.0211C564.641 44.944 564.428 43.8767 564.005 42.8884C563.582 41.9 562.958 41.0129 562.174 40.2845H562.18ZM579.131 50.6224C578.699 50.9448 578.068 51.1128 577.232 51.1128H573.248V47.1831H577.232C578.062 47.1831 578.692 47.3444 579.131 47.6601C579.562 47.9758 579.775 48.4661 579.775 49.111C579.775 49.7895 579.562 50.2932 579.131 50.6157V50.6224ZM573.255 40.9294H576.628C577.418 40.9294 578.015 41.0839 578.42 41.3996C578.819 41.722 579.018 42.1922 579.018 42.8102C579.018 43.4282 578.819 43.8984 578.42 44.2208C578.009 44.5298 577.418 44.691 576.628 44.691H573.255V40.9294ZM581.992 46.3972C581.531 46.0824 581.022 45.8464 580.485 45.6986C580.77 45.5643 581.029 45.4098 581.282 45.2284C581.743 44.8945 582.115 44.4492 582.363 43.933C582.611 43.4169 582.728 42.8462 582.703 42.2728C582.726 41.6896 582.598 41.1102 582.333 40.5919C582.068 40.0736 581.673 39.6343 581.189 39.3172C580.173 38.6186 578.759 38.2693 576.94 38.2693H569.656V53.7661H577.364C579.343 53.7661 580.857 53.3765 581.893 52.604C582.392 52.2425 582.796 51.7612 583.067 51.2032C583.338 50.6452 583.469 50.0279 583.446 49.4066C583.446 48.09 582.955 47.0891 581.985 46.3972H581.992ZM597.588 50.4209C597.057 50.8777 596.327 51.1128 595.397 51.1128H592.137V46.0211H595.397C596.172 45.9761 596.941 46.1731 597.601 46.5853C598.132 46.9615 598.398 47.5728 598.398 48.4326C598.398 49.3058 598.126 49.9641 597.588 50.4209ZM600.496 44.6104C599.467 43.7775 598.006 43.361 596.114 43.361H592.13V38.2693H588.539V53.7661H595.596C597.608 53.7661 599.181 53.3093 600.323 52.3958C601.465 51.4755 602.036 50.1388 602.036 48.3654C602.036 46.6995 601.519 45.4501 600.496 44.6104ZM610.482 50.8911V47.3041H617.745V44.5164H610.482V41.151H618.708V38.2693H606.89V53.7661H619V50.8911H610.482ZM389.802 45.2083C389.298 42.1519 387.498 41.2921 386.423 41.4802C385.48 41.6481 385.015 42.1049 383.847 44.5701C382.745 46.8742 381.715 50.0984 380.726 53.222C378.323 60.8192 376.052 68 371.292 68C369.778 68 368.304 67.2477 366.916 65.7833C362.76 61.3768 359.653 50.6627 360.031 44.9799C360.23 41.9101 361.585 39.9083 364.048 39.0284C365.993 38.3365 368.297 38.4238 370.521 38.5985C376.391 39.0485 378.05 38.9478 378.05 38.9478L377.652 40.0427C377.421 40.6791 376.992 41.2221 376.429 41.5894C375.866 41.9567 375.2 42.1282 374.532 42.078C373.363 41.9907 371.876 41.8899 370.349 41.8093C365.383 41.5205 363.49 41.7422 363.265 45.1881C362.939 50.0984 365.801 59.899 369.28 63.5733C369.798 64.1241 370.568 64.7824 371.292 64.7824C372.168 64.7824 373.244 63.5733 374.313 61.3969C375.521 58.9317 376.596 55.5394 377.632 52.2614C380.009 44.7515 382.061 38.2626 386.423 38.2626C387.844 38.2626 389.078 38.6119 390.088 39.2836C390.748 39.7697 391.304 40.3868 391.721 41.0973C392.236 42.0963 392.53 43.1963 392.584 44.3216C392.77 47.8347 389.968 48.6072 389.968 48.6072C389.968 48.6072 390.141 47.2638 389.802 45.2015V45.2083Z" fill="#1FBBC7"/>
<path d="M384.149 54.2933C384.149 54.2933 389.711 51.4624 396 50C395.445 50.8922 390.669 56.0441 384.149 54.2933ZM383.846 57.9626C383.846 57.9626 388.522 55.5879 393.807 54.3536C393.345 55.1117 389.322 59.4452 383.846 57.9693V57.9626ZM383.304 61.5314C383.304 61.5314 387.327 59.4854 391.865 58.4255C391.468 59.0762 388.014 62.7993 383.304 61.5314ZM383.086 64.7245C383.086 64.7245 386.336 63.0743 390.009 62.2089C389.692 62.7389 386.897 65.7509 383.086 64.7245ZM383 67.8438C383 67.8438 385.404 66.6229 388.119 65.9857C387.882 66.3747 385.821 68.6019 383.007 67.8438H383Z" fill="#1FBBC7"/>
<path d="M770.696 55.896C771.24 56.1093 771.752 56.1627 772.232 56.056C772.712 55.9387 773.155 55.56 773.56 54.92L774.104 54.056L774.216 53.912L778.504 45.8H779.688L774.6 55.176C774.259 55.8267 773.853 56.312 773.384 56.632C772.925 56.952 772.435 57.1227 771.912 57.144C771.4 57.1653 770.883 57.0693 770.36 56.856L770.696 55.896ZM774.184 54.984L769.336 45.8H770.6L774.824 54.008L774.184 54.984ZM784.136 57.08C783.304 57.08 782.557 56.8987 781.896 56.536C781.245 56.1627 780.733 55.656 780.36 55.016C779.987 54.3653 779.8 53.624 779.8 52.792C779.8 51.9493 779.987 51.208 780.36 50.568C780.733 49.928 781.245 49.4267 781.896 49.064C782.557 48.7013 783.304 48.52 784.136 48.52C784.851 48.52 785.496 48.6587 786.072 48.936C786.648 49.2133 787.101 49.6293 787.432 50.184L786.584 50.76C786.296 50.3333 785.939 50.0187 785.512 49.816C785.085 49.6133 784.621 49.512 784.12 49.512C783.523 49.512 782.984 49.6507 782.504 49.928C782.024 50.1947 781.645 50.5733 781.368 51.064C781.091 51.5547 780.952 52.1307 780.952 52.792C780.952 53.4533 781.091 54.0293 781.368 54.52C781.645 55.0107 782.024 55.3947 782.504 55.672C782.984 55.9387 783.523 56.072 784.12 56.072C784.621 56.072 785.085 55.9707 785.512 55.768C785.939 55.5653 786.296 55.256 786.584 54.84L787.432 55.416C787.101 55.96 786.648 56.376 786.072 56.664C785.496 56.9413 784.851 57.08 784.136 57.08ZM787.799 56.984L787.879 56.008C787.953 56.0187 788.023 56.0347 788.087 56.056C788.161 56.0667 788.225 56.072 788.279 56.072C788.62 56.072 788.892 55.944 789.095 55.688C789.308 55.432 789.468 55.0907 789.575 54.664C789.681 54.2373 789.756 53.7573 789.799 53.224C789.841 52.68 789.879 52.136 789.911 51.592L790.055 48.6H796.215V57H795.079V49.256L795.367 49.592H790.791L791.063 49.24L790.935 51.672C790.903 52.3973 790.844 53.0907 790.759 53.752C790.684 54.4133 790.561 54.9947 790.391 55.496C790.231 55.9973 790.007 56.392 789.719 56.68C789.431 56.9573 789.063 57.096 788.615 57.096C788.487 57.096 788.353 57.0853 788.215 57.064C788.087 57.0427 787.948 57.016 787.799 56.984ZM799.588 60.184C799.193 60.184 798.815 60.12 798.452 59.992C798.1 59.864 797.796 59.672 797.54 59.416L798.068 58.568C798.281 58.7707 798.511 58.9253 798.756 59.032C799.012 59.1493 799.295 59.208 799.604 59.208C799.977 59.208 800.297 59.1013 800.564 58.888C800.841 58.6853 801.103 58.3227 801.348 57.8L801.892 56.568L802.02 56.392L805.476 48.6H806.596L802.388 58.008C802.153 58.552 801.892 58.984 801.604 59.304C801.327 59.624 801.023 59.848 800.692 59.976C800.361 60.1147 799.993 60.184 799.588 60.184ZM801.828 57.24L797.956 48.6H799.14L802.564 56.312L801.828 57.24ZM808.366 57V48.6H814.318V49.592H809.214L809.502 49.304V57H808.366ZM815.96 57V48.6H817.096V55.272L822.712 48.6H823.72V57H822.584V50.312L816.984 57H815.96Z" fill="#22BBC7"/>
<path d="M666.8 57.096C665.957 57.096 665.173 56.9573 664.448 56.68C663.733 56.392 663.109 55.992 662.576 55.48C662.053 54.9573 661.643 54.3547 661.344 53.672C661.056 52.9787 660.912 52.2213 660.912 51.4C660.912 50.5787 661.056 49.8267 661.344 49.144C661.643 48.4507 662.053 47.848 662.576 47.336C663.109 46.8133 663.733 46.4133 664.448 46.136C665.163 45.848 665.947 45.704 666.8 45.704C667.643 45.704 668.421 45.848 669.136 46.136C669.851 46.4133 670.469 46.808 670.992 47.32C671.525 47.832 671.936 48.4347 672.224 49.128C672.523 49.8213 672.672 50.5787 672.672 51.4C672.672 52.2213 672.523 52.9787 672.224 53.672C671.936 54.3653 671.525 54.968 670.992 55.48C670.469 55.992 669.851 56.392 669.136 56.68C668.421 56.9573 667.643 57.096 666.8 57.096ZM666.8 56.04C667.472 56.04 668.091 55.928 668.656 55.704C669.232 55.4693 669.728 55.144 670.144 54.728C670.571 54.3013 670.901 53.8107 671.136 53.256C671.371 52.6907 671.488 52.072 671.488 51.4C671.488 50.728 671.371 50.1147 671.136 49.56C670.901 48.9947 670.571 48.504 670.144 48.088C669.728 47.6613 669.232 47.336 668.656 47.112C668.091 46.8773 667.472 46.76 666.8 46.76C666.128 46.76 665.504 46.8773 664.928 47.112C664.352 47.336 663.851 47.6613 663.424 48.088C663.008 48.504 662.677 48.9947 662.432 49.56C662.197 50.1147 662.08 50.728 662.08 51.4C662.08 52.0613 662.197 52.6747 662.432 53.24C662.677 53.8053 663.008 54.3013 663.424 54.728C663.851 55.144 664.352 55.4693 664.928 55.704C665.504 55.928 666.128 56.04 666.8 56.04ZM685.573 57L682.117 52.84L683.061 52.28L686.917 57H685.573ZM679.413 57V48.6H680.549V57H679.413ZM680.197 53.256V52.28H682.901V53.256H680.197ZM683.157 52.92L682.101 52.76L685.445 48.6H686.677L683.157 52.92ZM687.174 56.984L687.254 56.008C687.328 56.0187 687.398 56.0347 687.462 56.056C687.536 56.0667 687.6 56.072 687.654 56.072C687.995 56.072 688.267 55.944 688.47 55.688C688.683 55.432 688.843 55.0907 688.95 54.664C689.056 54.2373 689.131 53.7573 689.174 53.224C689.216 52.68 689.254 52.136 689.286 51.592L689.43 48.6H695.59V57H694.454V49.256L694.742 49.592H690.166L690.438 49.24L690.31 51.672C690.278 52.3973 690.219 53.0907 690.134 53.752C690.059 54.4133 689.936 54.9947 689.766 55.496C689.606 55.9973 689.382 56.392 689.094 56.68C688.806 56.9573 688.438 57.096 687.99 57.096C687.862 57.096 687.728 57.0853 687.59 57.064C687.462 57.0427 687.323 57.016 687.174 56.984ZM698.819 57V48.6H699.955V55.272L705.571 48.6H706.579V57H705.443V50.312L699.843 57H698.819ZM709.835 57V48.6H710.971V52.312H716.267V48.6H717.403V57H716.267V53.288H710.971V57H709.835ZM720.632 57V48.6H721.768V55.272L727.384 48.6H728.392V57H727.256V50.312L721.656 57H720.632ZM737.807 57L734.351 52.84L735.295 52.28L739.151 57H737.807ZM731.647 57V48.6H732.783V57H731.647ZM732.431 53.256V52.28H735.135V53.256H732.431ZM735.391 52.92L734.335 52.76L737.679 48.6H738.911L735.391 52.92ZM744.247 57.08C743.373 57.08 742.605 56.8987 741.943 56.536C741.282 56.1627 740.765 55.656 740.391 55.016C740.018 54.3653 739.831 53.624 739.831 52.792C739.831 51.96 740.007 51.224 740.359 50.584C740.722 49.944 741.213 49.4427 741.831 49.08C742.461 48.7067 743.165 48.52 743.943 48.52C744.733 48.52 745.431 48.7013 746.039 49.064C746.658 49.416 747.143 49.9173 747.495 50.568C747.847 51.208 748.023 51.9493 748.023 52.792C748.023 52.8453 748.018 52.904 748.007 52.968C748.007 53.0213 748.007 53.08 748.007 53.144H740.695V52.296H747.399L746.951 52.632C746.951 52.024 746.818 51.4853 746.551 51.016C746.295 50.536 745.943 50.1627 745.495 49.896C745.047 49.6293 744.53 49.496 743.943 49.496C743.367 49.496 742.85 49.6293 742.391 49.896C741.933 50.1627 741.575 50.536 741.319 51.016C741.063 51.496 740.935 52.0453 740.935 52.664V52.84C740.935 53.48 741.074 54.0453 741.351 54.536C741.639 55.016 742.034 55.3947 742.535 55.672C743.047 55.9387 743.629 56.072 744.279 56.072C744.791 56.072 745.266 55.9813 745.703 55.8C746.151 55.6187 746.535 55.3413 746.855 54.968L747.495 55.704C747.122 56.152 746.653 56.4933 746.087 56.728C745.533 56.9627 744.919 57.08 744.247 57.08Z" fill="#22BBC7"/>
<path d="M846.888 57V45.8H851.544C852.728 45.8 853.656 46.0453 854.328 46.536C855.011 47.016 855.352 47.7253 855.352 48.664C855.352 49.592 855.027 50.296 854.376 50.776C853.725 51.2453 852.872 51.48 851.816 51.48L852.088 51.08C853.336 51.08 854.285 51.3253 854.936 51.816C855.587 52.3067 855.912 53.0267 855.912 53.976C855.912 54.936 855.571 55.6827 854.888 56.216C854.216 56.7387 853.203 57 851.848 57H846.888ZM848.056 56.056H851.848C852.797 56.056 853.517 55.88 854.008 55.528C854.499 55.176 854.744 54.632 854.744 53.896C854.744 53.1707 854.499 52.6373 854.008 52.296C853.517 51.9547 852.797 51.784 851.848 51.784H848.056V56.056ZM848.056 50.872H851.48C852.344 50.872 853.005 50.7013 853.464 50.36C853.933 50.008 854.168 49.4907 854.168 48.808C854.168 48.1253 853.933 47.6133 853.464 47.272C853.005 46.92 852.344 46.744 851.48 46.744H848.056V50.872ZM862.936 57.08C862.211 57.08 861.555 56.9147 860.968 56.584C860.382 56.2427 859.912 55.7573 859.56 55.128C859.219 54.488 859.048 53.7093 859.048 52.792C859.048 51.8747 859.219 51.1013 859.56 50.472C859.902 49.832 860.366 49.3467 860.952 49.016C861.539 48.6853 862.2 48.52 862.936 48.52C863.736 48.52 864.451 48.7013 865.08 49.064C865.72 49.416 866.222 49.9173 866.584 50.568C866.947 51.208 867.128 51.9493 867.128 52.792C867.128 53.6453 866.947 54.392 866.584 55.032C866.222 55.672 865.72 56.1733 865.08 56.536C864.451 56.8987 863.736 57.08 862.936 57.08ZM858.6 60.104V48.6H859.688V51.128L859.576 52.808L859.736 54.504V60.104H858.6ZM862.856 56.072C863.454 56.072 863.987 55.9387 864.456 55.672C864.926 55.3947 865.299 55.0107 865.576 54.52C865.854 54.0187 865.992 53.4427 865.992 52.792C865.992 52.1413 865.854 51.5707 865.576 51.08C865.299 50.5893 864.926 50.2053 864.456 49.928C863.987 49.6507 863.454 49.512 862.856 49.512C862.259 49.512 861.72 49.6507 861.24 49.928C860.771 50.2053 860.398 50.5893 860.12 51.08C859.854 51.5707 859.72 52.1413 859.72 52.792C859.72 53.4427 859.854 54.0187 860.12 54.52C860.398 55.0107 860.771 55.3947 861.24 55.672C861.72 55.9387 862.259 56.072 862.856 56.072ZM874.738 57V55.144L874.69 54.84V51.736C874.69 51.0213 874.488 50.472 874.082 50.088C873.688 49.704 873.096 49.512 872.306 49.512C871.762 49.512 871.245 49.6027 870.754 49.784C870.264 49.9653 869.848 50.2053 869.506 50.504L868.994 49.656C869.421 49.2933 869.933 49.016 870.53 48.824C871.128 48.6213 871.757 48.52 872.418 48.52C873.506 48.52 874.344 48.792 874.93 49.336C875.528 49.8693 875.826 50.6853 875.826 51.784V57H874.738ZM871.842 57.08C871.213 57.08 870.664 56.9787 870.194 56.776C869.736 56.5627 869.384 56.2747 869.138 55.912C868.893 55.5387 868.77 55.112 868.77 54.632C868.77 54.1947 868.872 53.8 869.074 53.448C869.288 53.0853 869.629 52.7973 870.098 52.584C870.578 52.36 871.218 52.248 872.018 52.248H874.914V53.096H872.05C871.24 53.096 870.674 53.24 870.354 53.528C870.045 53.816 869.89 54.1733 869.89 54.6C869.89 55.08 870.077 55.464 870.45 55.752C870.824 56.04 871.346 56.184 872.018 56.184C872.658 56.184 873.208 56.04 873.666 55.752C874.136 55.4533 874.477 55.0267 874.69 54.472L874.946 55.256C874.733 55.8107 874.36 56.2533 873.826 56.584C873.304 56.9147 872.642 57.08 871.842 57.08ZM884.162 53.448C883.672 53.6613 883.176 53.832 882.674 53.96C882.184 54.0773 881.693 54.136 881.202 54.136C880.21 54.136 879.426 53.912 878.85 53.464C878.274 53.0053 877.986 52.3013 877.986 51.352V48.6H879.106V51.288C879.106 51.928 879.314 52.408 879.73 52.728C880.146 53.048 880.706 53.208 881.41 53.208C881.837 53.208 882.285 53.1547 882.754 53.048C883.224 52.9307 883.698 52.7653 884.178 52.552L884.162 53.448ZM884.066 57V48.6H885.202V57H884.066ZM888.429 57V48.6H889.565V55.272L895.181 48.6H896.189V57H895.053V50.312L889.453 57H888.429Z" fill="#22BBC7"/>
<a href="https://www.figma.com/design/BJXQvAf2aYsuRlQrvzEaJl?node-id=212-86">
<rect fill="black" fill-opacity="0" y="-0.252001" width="52.8205" height="19.504"/>
</a>
<path d="M924.8 57.096C923.957 57.096 923.173 56.9573 922.448 56.68C921.733 56.392 921.109 55.992 920.576 55.48C920.053 54.9573 919.643 54.3547 919.344 53.672C919.056 52.9787 918.912 52.2213 918.912 51.4C918.912 50.5787 919.056 49.8267 919.344 49.144C919.643 48.4507 920.053 47.848 920.576 47.336C921.109 46.8133 921.733 46.4133 922.448 46.136C923.163 45.848 923.947 45.704 924.8 45.704C925.643 45.704 926.421 45.848 927.136 46.136C927.851 46.4133 928.469 46.808 928.992 47.32C929.525 47.832 929.936 48.4347 930.224 49.128C930.523 49.8213 930.672 50.5787 930.672 51.4C930.672 52.2213 930.523 52.9787 930.224 53.672C929.936 54.3653 929.525 54.968 928.992 55.48C928.469 55.992 927.851 56.392 927.136 56.68C926.421 56.9573 925.643 57.096 924.8 57.096ZM924.8 56.04C925.472 56.04 926.091 55.928 926.656 55.704C927.232 55.4693 927.728 55.144 928.144 54.728C928.571 54.3013 928.901 53.8107 929.136 53.256C929.371 52.6907 929.488 52.072 929.488 51.4C929.488 50.728 929.371 50.1147 929.136 49.56C928.901 48.9947 928.571 48.504 928.144 48.088C927.728 47.6613 927.232 47.336 926.656 47.112C926.091 46.8773 925.472 46.76 924.8 46.76C924.128 46.76 923.504 46.8773 922.928 47.112C922.352 47.336 921.851 47.6613 921.424 48.088C921.008 48.504 920.677 48.9947 920.432 49.56C920.197 50.1147 920.08 50.728 920.08 51.4C920.08 52.0613 920.197 52.6747 920.432 53.24C920.677 53.8053 921.008 54.3013 921.424 54.728C921.851 55.144 922.352 55.4693 922.928 55.704C923.504 55.928 924.128 56.04 924.8 56.04ZM934.591 57V49.288L934.879 49.592H931.407V48.6H938.911V49.592H935.439L935.727 49.288V57H934.591ZM942.575 57.096C941.967 57.096 941.364 57.0107 940.767 56.84C940.17 56.6693 939.642 56.408 939.183 56.056L939.551 55.208C939.956 55.5067 940.426 55.736 940.959 55.896C941.492 56.0453 942.02 56.12 942.543 56.12C943.066 56.1093 943.519 56.0347 943.903 55.896C944.287 55.7573 944.586 55.5653 944.799 55.32C945.012 55.0747 945.119 54.7973 945.119 54.488C945.119 54.04 944.916 53.6933 944.511 53.448C944.106 53.192 943.551 53.064 942.847 53.064H941.407V52.232H942.767C943.183 52.232 943.551 52.1787 943.871 52.072C944.191 51.9653 944.436 51.8107 944.607 51.608C944.788 51.4053 944.879 51.1653 944.879 50.888C944.879 50.5893 944.772 50.3333 944.559 50.12C944.356 49.9067 944.074 49.7467 943.711 49.64C943.348 49.5333 942.938 49.48 942.479 49.48C942.063 49.4907 941.631 49.5547 941.183 49.672C940.735 49.7787 940.292 49.944 939.855 50.168L939.535 49.288C940.026 49.032 940.511 48.84 940.991 48.712C941.482 48.5733 941.972 48.504 942.463 48.504C943.135 48.4827 943.738 48.5627 944.271 48.744C944.815 48.9253 945.247 49.1867 945.567 49.528C945.887 49.8587 946.047 50.2587 946.047 50.728C946.047 51.144 945.919 51.5067 945.663 51.816C945.407 52.1253 945.066 52.3653 944.639 52.536C944.212 52.7067 943.727 52.792 943.183 52.792L943.231 52.488C944.191 52.488 944.938 52.6747 945.471 53.048C946.015 53.4213 946.287 53.928 946.287 54.568C946.287 55.0693 946.122 55.512 945.791 55.896C945.46 56.2693 945.012 56.5627 944.447 56.776C943.892 56.9893 943.268 57.096 942.575 57.096ZM957.058 57V48.6H958.194V57H957.058ZM952.402 51.56C953.458 51.5707 954.263 51.8053 954.818 52.264C955.373 52.7227 955.65 53.384 955.65 54.248C955.65 55.144 955.351 55.832 954.754 56.312C954.157 56.792 953.303 57.0267 952.194 57.016L948.866 57V48.6H950.002V51.528L952.402 51.56ZM952.114 56.152C952.903 56.1627 953.495 56.008 953.89 55.688C954.295 55.3573 954.498 54.8773 954.498 54.248C954.498 53.6187 954.301 53.16 953.906 52.872C953.511 52.5733 952.914 52.4187 952.114 52.408L950.002 52.376V56.12L952.114 56.152ZM961.429 57V48.6H965.141C966.09 48.6 966.837 48.7813 967.381 49.144C967.935 49.5067 968.213 50.04 968.213 50.744C968.213 51.4267 967.951 51.9547 967.429 52.328C966.906 52.6907 966.218 52.872 965.365 52.872L965.589 52.536C966.591 52.536 967.327 52.7227 967.797 53.096C968.266 53.4693 968.501 54.008 968.501 54.712C968.501 55.4373 968.234 56.0027 967.701 56.408C967.178 56.8027 966.362 57 965.253 57H961.429ZM962.533 56.104H965.205C965.919 56.104 966.458 55.992 966.821 55.768C967.194 55.5333 967.381 55.16 967.381 54.648C967.381 54.136 967.215 53.7627 966.885 53.528C966.554 53.2933 966.031 53.176 965.317 53.176H962.533V56.104ZM962.533 52.328H965.061C965.711 52.328 966.207 52.2053 966.549 51.96C966.901 51.7147 967.077 51.3573 967.077 50.888C967.077 50.4187 966.901 50.0667 966.549 49.832C966.207 49.5973 965.711 49.48 965.061 49.48H962.533V52.328ZM979.355 57V48.6H980.491V57H979.355ZM974.699 51.56C975.755 51.5707 976.56 51.8053 977.115 52.264C977.67 52.7227 977.947 53.384 977.947 54.248C977.947 55.144 977.648 55.832 977.051 56.312C976.454 56.792 975.6 57.0267 974.491 57.016L971.163 57V48.6H972.299V51.528L974.699 51.56ZM974.411 56.152C975.2 56.1627 975.792 56.008 976.187 55.688C976.592 55.3573 976.795 54.8773 976.795 54.248C976.795 53.6187 976.598 53.16 976.203 52.872C975.808 52.5733 975.211 52.4187 974.411 52.408L972.299 52.376V56.12L974.411 56.152Z" fill="#22BBC7"/>
<path d="M1003.89 57V45.8H1013.31V57H1012.14V46.504L1012.45 46.824H1004.75L1005.06 46.504V57H1003.89ZM1022.04 57V55.144L1021.99 54.84V51.736C1021.99 51.0213 1021.78 50.472 1021.38 50.088C1020.98 49.704 1020.39 49.512 1019.6 49.512C1019.06 49.512 1018.54 49.6027 1018.05 49.784C1017.56 49.9653 1017.14 50.2053 1016.8 50.504L1016.29 49.656C1016.72 49.2933 1017.23 49.016 1017.83 48.824C1018.42 48.6213 1019.05 48.52 1019.72 48.52C1020.8 48.52 1021.64 48.792 1022.23 49.336C1022.82 49.8693 1023.12 50.6853 1023.12 51.784V57H1022.04ZM1019.14 57.08C1018.51 57.08 1017.96 56.9787 1017.49 56.776C1017.03 56.5627 1016.68 56.2747 1016.44 55.912C1016.19 55.5387 1016.07 55.112 1016.07 54.632C1016.07 54.1947 1016.17 53.8 1016.37 53.448C1016.58 53.0853 1016.93 52.7973 1017.4 52.584C1017.88 52.36 1018.52 52.248 1019.32 52.248H1022.21V53.096H1019.35C1018.54 53.096 1017.97 53.24 1017.65 53.528C1017.34 53.816 1017.19 54.1733 1017.19 54.6C1017.19 55.08 1017.37 55.464 1017.75 55.752C1018.12 56.04 1018.64 56.184 1019.32 56.184C1019.96 56.184 1020.5 56.04 1020.96 55.752C1021.43 55.4533 1021.77 55.0267 1021.99 54.472L1022.24 55.256C1022.03 55.8107 1021.66 56.2533 1021.12 56.584C1020.6 56.9147 1019.94 57.08 1019.14 57.08ZM1026.15 57V48.6H1027.28V56.008H1032.42V48.6H1033.56V57H1026.15ZM1033.84 59.032V56.904L1034.13 57H1032.42V56.008H1034.92V59.032H1033.84ZM1037.08 57V48.6H1038.22V55.272L1043.84 48.6H1044.84V57H1043.71V50.312L1038.11 57H1037.08ZM1051.7 57.08C1050.83 57.08 1050.06 56.8987 1049.4 56.536C1048.74 56.1627 1048.22 55.656 1047.84 55.016C1047.47 54.3653 1047.28 53.624 1047.28 52.792C1047.28 51.96 1047.46 51.224 1047.81 50.584C1048.18 49.944 1048.67 49.4427 1049.28 49.08C1049.91 48.7067 1050.62 48.52 1051.4 48.52C1052.19 48.52 1052.88 48.7013 1053.49 49.064C1054.11 49.416 1054.6 49.9173 1054.95 50.568C1055.3 51.208 1055.48 51.9493 1055.48 52.792C1055.48 52.8453 1055.47 52.904 1055.46 52.968C1055.46 53.0213 1055.46 53.08 1055.46 53.144H1048.15V52.296H1054.85L1054.4 52.632C1054.4 52.024 1054.27 51.4853 1054 51.016C1053.75 50.536 1053.4 50.1627 1052.95 49.896C1052.5 49.6293 1051.98 49.496 1051.4 49.496C1050.82 49.496 1050.3 49.6293 1049.84 49.896C1049.39 50.1627 1049.03 50.536 1048.77 51.016C1048.52 51.496 1048.39 52.0453 1048.39 52.664V52.84C1048.39 53.48 1048.53 54.0453 1048.8 54.536C1049.09 55.016 1049.49 55.3947 1049.99 55.672C1050.5 55.9387 1051.08 56.072 1051.73 56.072C1052.24 56.072 1052.72 55.9813 1053.16 55.8C1053.6 55.6187 1053.99 55.3413 1054.31 54.968L1054.95 55.704C1054.58 56.152 1054.11 56.4933 1053.54 56.728C1052.99 56.9627 1052.37 57.08 1051.7 57.08ZM1057.99 57V48.6H1059.13V52.312H1064.42V48.6H1065.56V57H1064.42V53.288H1059.13V57H1057.99ZM1070.39 57V49.288L1070.68 49.592H1067.2V48.6H1074.71V49.592H1071.24L1071.52 49.288V57H1070.39ZM1081.57 57V55.144L1081.52 54.84V51.736C1081.52 51.0213 1081.32 50.472 1080.91 50.088C1080.52 49.704 1079.92 49.512 1079.13 49.512C1078.59 49.512 1078.07 49.6027 1077.58 49.784C1077.09 49.9653 1076.68 50.2053 1076.33 50.504L1075.82 49.656C1076.25 49.2933 1076.76 49.016 1077.36 48.824C1077.96 48.6213 1078.59 48.52 1079.25 48.52C1080.33 48.52 1081.17 48.792 1081.76 49.336C1082.36 49.8693 1082.65 50.6853 1082.65 51.784V57H1081.57ZM1078.67 57.08C1078.04 57.08 1077.49 56.9787 1077.02 56.776C1076.56 56.5627 1076.21 56.2747 1075.97 55.912C1075.72 55.5387 1075.6 55.112 1075.6 54.632C1075.6 54.1947 1075.7 53.8 1075.9 53.448C1076.12 53.0853 1076.46 52.7973 1076.93 52.584C1077.41 52.36 1078.05 52.248 1078.85 52.248H1081.74V53.096H1078.88C1078.07 53.096 1077.5 53.24 1077.18 53.528C1076.87 53.816 1076.72 54.1733 1076.72 54.6C1076.72 55.08 1076.91 55.464 1077.28 55.752C1077.65 56.04 1078.17 56.184 1078.85 56.184C1079.49 56.184 1080.04 56.04 1080.49 55.752C1080.96 55.4533 1081.31 55.0267 1081.52 54.472L1081.77 55.256C1081.56 55.8107 1081.19 56.2533 1080.65 56.584C1080.13 56.9147 1079.47 57.08 1078.67 57.08ZM1085.68 57V48.6H1086.83L1090.64 55.048H1090.16L1094.03 48.6H1095.09V57H1094.05V49.896L1094.25 49.992L1090.64 55.976H1090.13L1086.48 49.928L1086.72 49.88V57H1085.68Z" fill="#22BBC7"/>
<path d="M1118.89 57V45.8H1128.31V57H1127.14V46.504L1127.45 46.824H1119.75L1120.06 46.504V57H1118.89ZM1135.28 57.08C1134.46 57.08 1133.73 56.8987 1133.08 56.536C1132.44 56.1627 1131.94 55.656 1131.56 55.016C1131.19 54.3653 1131 53.624 1131 52.792C1131 51.9493 1131.19 51.208 1131.56 50.568C1131.94 49.928 1132.44 49.4267 1133.08 49.064C1133.72 48.7013 1134.45 48.52 1135.28 48.52C1136.11 48.52 1136.84 48.7013 1137.48 49.064C1138.13 49.4267 1138.64 49.928 1139 50.568C1139.38 51.208 1139.56 51.9493 1139.56 52.792C1139.56 53.624 1139.38 54.3653 1139 55.016C1138.64 55.656 1138.13 56.1627 1137.48 56.536C1136.83 56.8987 1136.1 57.08 1135.28 57.08ZM1135.28 56.072C1135.88 56.072 1136.42 55.9387 1136.89 55.672C1137.36 55.3947 1137.73 55.0107 1138 54.52C1138.27 54.0187 1138.41 53.4427 1138.41 52.792C1138.41 52.1307 1138.27 51.5547 1138 51.064C1137.73 50.5733 1137.36 50.1947 1136.89 49.928C1136.42 49.6507 1135.89 49.512 1135.29 49.512C1134.69 49.512 1134.16 49.6507 1133.69 49.928C1133.22 50.1947 1132.85 50.5733 1132.57 51.064C1132.29 51.5547 1132.16 52.1307 1132.16 52.792C1132.16 53.4427 1132.29 54.0187 1132.57 54.52C1132.85 55.0107 1133.22 55.3947 1133.69 55.672C1134.16 55.9387 1134.69 56.072 1135.28 56.072ZM1140.41 56.984L1140.49 56.008C1140.56 56.0187 1140.63 56.0347 1140.7 56.056C1140.77 56.0667 1140.83 56.072 1140.89 56.072C1141.23 56.072 1141.5 55.944 1141.7 55.688C1141.92 55.432 1142.08 55.0907 1142.18 54.664C1142.29 54.2373 1142.37 53.7573 1142.41 53.224C1142.45 52.68 1142.49 52.136 1142.52 51.592L1142.66 48.6H1148.82V57H1147.69V49.256L1147.98 49.592H1143.4L1143.67 49.24L1143.54 51.672C1143.51 52.3973 1143.45 53.0907 1143.37 53.752C1143.29 54.4133 1143.17 54.9947 1143 55.496C1142.84 55.9973 1142.62 56.392 1142.33 56.68C1142.04 56.9573 1141.67 57.096 1141.22 57.096C1141.1 57.096 1140.96 57.0853 1140.82 57.064C1140.7 57.0427 1140.56 57.016 1140.41 56.984ZM1155.65 57.08C1154.78 57.08 1154.01 56.8987 1153.35 56.536C1152.69 56.1627 1152.17 55.656 1151.8 55.016C1151.42 54.3653 1151.24 53.624 1151.24 52.792C1151.24 51.96 1151.41 51.224 1151.77 50.584C1152.13 49.944 1152.62 49.4427 1153.24 49.08C1153.87 48.7067 1154.57 48.52 1155.35 48.52C1156.14 48.52 1156.84 48.7013 1157.45 49.064C1158.06 49.416 1158.55 49.9173 1158.9 50.568C1159.25 51.208 1159.43 51.9493 1159.43 52.792C1159.43 52.8453 1159.42 52.904 1159.41 52.968C1159.41 53.0213 1159.41 53.08 1159.41 53.144H1152.1V52.296H1158.81L1158.36 52.632C1158.36 52.024 1158.22 51.4853 1157.96 51.016C1157.7 50.536 1157.35 50.1627 1156.9 49.896C1156.45 49.6293 1155.94 49.496 1155.35 49.496C1154.77 49.496 1154.26 49.6293 1153.8 49.896C1153.34 50.1627 1152.98 50.536 1152.73 51.016C1152.47 51.496 1152.34 52.0453 1152.34 52.664V52.84C1152.34 53.48 1152.48 54.0453 1152.76 54.536C1153.05 55.016 1153.44 55.3947 1153.94 55.672C1154.45 55.9387 1155.03 56.072 1155.69 56.072C1156.2 56.072 1156.67 55.9813 1157.11 55.8C1157.56 55.6187 1157.94 55.3413 1158.26 54.968L1158.9 55.704C1158.53 56.152 1158.06 56.4933 1157.49 56.728C1156.94 56.9627 1156.33 57.08 1155.65 57.08ZM1163.97 57.096C1163.36 57.096 1162.76 57.0107 1162.16 56.84C1161.56 56.6693 1161.03 56.408 1160.57 56.056L1160.94 55.208C1161.35 55.5067 1161.82 55.736 1162.35 55.896C1162.88 56.0453 1163.41 56.12 1163.93 56.12C1164.46 56.1093 1164.91 56.0347 1165.29 55.896C1165.68 55.7573 1165.98 55.5653 1166.19 55.32C1166.4 55.0747 1166.51 54.7973 1166.51 54.488C1166.51 54.04 1166.31 53.6933 1165.9 53.448C1165.5 53.192 1164.94 53.064 1164.24 53.064H1162.8V52.232H1164.16C1164.57 52.232 1164.94 52.1787 1165.26 52.072C1165.58 51.9653 1165.83 51.8107 1166 51.608C1166.18 51.4053 1166.27 51.1653 1166.27 50.888C1166.27 50.5893 1166.16 50.3333 1165.95 50.12C1165.75 49.9067 1165.46 49.7467 1165.1 49.64C1164.74 49.5333 1164.33 49.48 1163.87 49.48C1163.45 49.4907 1163.02 49.5547 1162.57 49.672C1162.13 49.7787 1161.68 49.944 1161.25 50.168L1160.93 49.288C1161.42 49.032 1161.9 48.84 1162.38 48.712C1162.87 48.5733 1163.36 48.504 1163.85 48.504C1164.53 48.4827 1165.13 48.5627 1165.66 48.744C1166.21 48.9253 1166.64 49.1867 1166.96 49.528C1167.28 49.8587 1167.44 50.2587 1167.44 50.728C1167.44 51.144 1167.31 51.5067 1167.05 51.816C1166.8 52.1253 1166.46 52.3653 1166.03 52.536C1165.6 52.7067 1165.12 52.792 1164.57 52.792L1164.62 52.488C1165.58 52.488 1166.33 52.6747 1166.86 53.048C1167.41 53.4213 1167.68 53.928 1167.68 54.568C1167.68 55.0693 1167.51 55.512 1167.18 55.896C1166.85 56.2693 1166.4 56.5627 1165.84 56.776C1165.28 56.9893 1164.66 57.096 1163.97 57.096ZM1170.26 57V48.6H1171.39V52.312H1176.69V48.6H1177.82V57H1176.69V53.288H1171.39V57H1170.26ZM1184.51 57.08C1183.7 57.08 1182.97 56.8987 1182.32 56.536C1181.68 56.1627 1181.17 55.656 1180.8 55.016C1180.42 54.3653 1180.24 53.624 1180.24 52.792C1180.24 51.9493 1180.42 51.208 1180.8 50.568C1181.17 49.928 1181.68 49.4267 1182.32 49.064C1182.96 48.7013 1183.69 48.52 1184.51 48.52C1185.34 48.52 1186.08 48.7013 1186.72 49.064C1187.37 49.4267 1187.87 49.928 1188.24 50.568C1188.61 51.208 1188.8 51.9493 1188.8 52.792C1188.8 53.624 1188.61 54.3653 1188.24 55.016C1187.87 55.656 1187.37 56.1627 1186.72 56.536C1186.07 56.8987 1185.33 57.08 1184.51 57.08ZM1184.51 56.072C1185.12 56.072 1185.66 55.9387 1186.13 55.672C1186.59 55.3947 1186.96 55.0107 1187.23 54.52C1187.51 54.0187 1187.65 53.4427 1187.65 52.792C1187.65 52.1307 1187.51 51.5547 1187.23 51.064C1186.96 50.5733 1186.59 50.1947 1186.13 49.928C1185.66 49.6507 1185.12 49.512 1184.53 49.512C1183.93 49.512 1183.39 49.6507 1182.93 49.928C1182.46 50.1947 1182.08 50.5733 1181.81 51.064C1181.53 51.5547 1181.39 52.1307 1181.39 52.792C1181.39 53.4427 1181.53 54.0187 1181.81 54.52C1182.08 55.0107 1182.46 55.3947 1182.93 55.672C1183.39 55.9387 1183.92 56.072 1184.51 56.072ZM1194.83 57.08C1193.95 57.08 1193.18 56.8987 1192.52 56.536C1191.86 56.1627 1191.34 55.656 1190.97 55.016C1190.6 54.3653 1190.41 53.624 1190.41 52.792C1190.41 51.96 1190.59 51.224 1190.94 50.584C1191.3 49.944 1191.79 49.4427 1192.41 49.08C1193.04 48.7067 1193.74 48.52 1194.52 48.52C1195.31 48.52 1196.01 48.7013 1196.62 49.064C1197.24 49.416 1197.72 49.9173 1198.07 50.568C1198.43 51.208 1198.6 51.9493 1198.6 52.792C1198.6 52.8453 1198.6 52.904 1198.59 52.968C1198.59 53.0213 1198.59 53.08 1198.59 53.144H1191.27V52.296H1197.98L1197.53 52.632C1197.53 52.024 1197.4 51.4853 1197.13 51.016C1196.87 50.536 1196.52 50.1627 1196.07 49.896C1195.63 49.6293 1195.11 49.496 1194.52 49.496C1193.95 49.496 1193.43 49.6293 1192.97 49.896C1192.51 50.1627 1192.15 50.536 1191.9 51.016C1191.64 51.496 1191.51 52.0453 1191.51 52.664V52.84C1191.51 53.48 1191.65 54.0453 1191.93 54.536C1192.22 55.016 1192.61 55.3947 1193.11 55.672C1193.63 55.9387 1194.21 56.072 1194.86 56.072C1195.37 56.072 1195.84 55.9813 1196.28 55.8C1196.73 55.6187 1197.11 55.3413 1197.43 54.968L1198.07 55.704C1197.7 56.152 1197.23 56.4933 1196.67 56.728C1196.11 56.9627 1195.5 57.08 1194.83 57.08Z" fill="#22BBC7"/>
<path d="M1228.55 57L1224.25 51.416L1225.21 50.84L1229.91 57H1228.55ZM1220.89 57V45.8H1222.04V57H1220.89ZM1221.69 51.864V50.824H1225.19V51.864H1221.69ZM1225.3 51.528L1224.22 51.336L1228.39 45.8H1229.67L1225.3 51.528ZM1234.82 57.08C1234.01 57.08 1233.28 56.8987 1232.63 56.536C1231.99 56.1627 1231.48 55.656 1231.11 55.016C1230.74 54.3653 1230.55 53.624 1230.55 52.792C1230.55 51.9493 1230.74 51.208 1231.11 50.568C1231.48 49.928 1231.99 49.4267 1232.63 49.064C1233.27 48.7013 1234 48.52 1234.82 48.52C1235.65 48.52 1236.39 48.7013 1237.03 49.064C1237.68 49.4267 1238.19 49.928 1238.55 50.568C1238.92 51.208 1239.11 51.9493 1239.11 52.792C1239.11 53.624 1238.92 54.3653 1238.55 55.016C1238.19 55.656 1237.68 56.1627 1237.03 56.536C1236.38 56.8987 1235.64 57.08 1234.82 57.08ZM1234.82 56.072C1235.43 56.072 1235.97 55.9387 1236.44 55.672C1236.91 55.3947 1237.28 55.0107 1237.54 54.52C1237.82 54.0187 1237.96 53.4427 1237.96 52.792C1237.96 52.1307 1237.82 51.5547 1237.54 51.064C1237.28 50.5733 1236.91 50.1947 1236.44 49.928C1235.97 49.6507 1235.44 49.512 1234.84 49.512C1234.24 49.512 1233.71 49.6507 1233.24 49.928C1232.77 50.1947 1232.4 50.5733 1232.12 51.064C1231.84 51.5547 1231.7 52.1307 1231.7 52.792C1231.7 53.4427 1231.84 54.0187 1232.12 54.52C1232.4 55.0107 1232.77 55.3947 1233.24 55.672C1233.71 55.9387 1234.24 56.072 1234.82 56.072ZM1241.54 57V48.6H1242.67V52.312H1247.97V48.6H1249.11V57H1247.97V53.288H1242.67V57H1241.54ZM1253.93 57V49.288L1254.22 49.592H1250.75V48.6H1258.25V49.592H1254.78L1255.07 49.288V57H1253.93ZM1265.11 57V55.144L1265.07 54.84V51.736C1265.07 51.0213 1264.86 50.472 1264.46 50.088C1264.06 49.704 1263.47 49.512 1262.68 49.512C1262.14 49.512 1261.62 49.6027 1261.13 49.784C1260.64 49.9653 1260.22 50.2053 1259.88 50.504L1259.37 49.656C1259.8 49.2933 1260.31 49.016 1260.91 48.824C1261.5 48.6213 1262.13 48.52 1262.79 48.52C1263.88 48.52 1264.72 48.792 1265.31 49.336C1265.9 49.8693 1266.2 50.6853 1266.2 51.784V57H1265.11ZM1262.22 57.08C1261.59 57.08 1261.04 56.9787 1260.57 56.776C1260.11 56.5627 1259.76 56.2747 1259.51 55.912C1259.27 55.5387 1259.15 55.112 1259.15 54.632C1259.15 54.1947 1259.25 53.8 1259.45 53.448C1259.66 53.0853 1260 52.7973 1260.47 52.584C1260.95 52.36 1261.59 52.248 1262.39 52.248H1265.29V53.096H1262.43C1261.61 53.096 1261.05 53.24 1260.73 53.528C1260.42 53.816 1260.27 54.1733 1260.27 54.6C1260.27 55.08 1260.45 55.464 1260.83 55.752C1261.2 56.04 1261.72 56.184 1262.39 56.184C1263.03 56.184 1263.58 56.04 1264.04 55.752C1264.51 55.4533 1264.85 55.0267 1265.07 54.472L1265.32 55.256C1265.11 55.8107 1264.73 56.2533 1264.2 56.584C1263.68 56.9147 1263.02 57.08 1262.22 57.08ZM1275.39 57L1271.93 52.84L1272.87 52.28L1276.73 57H1275.39ZM1269.23 57V48.6H1270.36V57H1269.23ZM1270.01 53.256V52.28H1272.71V53.256H1270.01ZM1272.97 52.92L1271.91 52.76L1275.26 48.6H1276.49L1272.97 52.92ZM1279.95 57V49.288L1280.24 49.592H1276.77V48.6H1284.27V49.592H1280.8L1281.09 49.288V57H1279.95ZM1294.1 57V48.6H1295.24V57H1294.1ZM1289.45 51.56C1290.5 51.5707 1291.31 51.8053 1291.86 52.264C1292.42 52.7227 1292.7 53.384 1292.7 54.248C1292.7 55.144 1292.4 55.832 1291.8 56.312C1291.2 56.792 1290.35 57.0267 1289.24 57.016L1285.91 57V48.6H1287.05V51.528L1289.45 51.56ZM1289.16 56.152C1289.95 56.1627 1290.54 56.008 1290.94 55.688C1291.34 55.3573 1291.54 54.8773 1291.54 54.248C1291.54 53.6187 1291.35 53.16 1290.95 52.872C1290.56 52.5733 1289.96 52.4187 1289.16 52.408L1287.05 52.376V56.12L1289.16 56.152Z" fill="#22BBC7"/>
<mask id="path-11-inside-1_90_887" fill="white">
<path d="M1371 35H1560V54H1371V35Z"/>
</mask>
<path d="M1371 54.5H1372.49V53.5H1371V54.5ZM1374.48 54.5H1377.47V53.5H1374.48V54.5ZM1379.46 54.5H1382.44V53.5H1379.46V54.5ZM1384.43 54.5H1387.41V53.5H1384.43V54.5ZM1389.4 54.5H1392.39V53.5H1389.4V54.5ZM1394.38 54.5H1397.36V53.5H1394.38V54.5ZM1399.35 54.5H1402.33V53.5H1399.35V54.5ZM1404.32 54.5H1407.31V53.5H1404.32V54.5ZM1409.3 54.5H1412.28V53.5H1409.3V54.5ZM1414.27 54.5H1417.26V53.5H1414.27V54.5ZM1419.24 54.5H1422.23V53.5H1419.24V54.5ZM1424.22 54.5H1427.2V53.5H1424.22V54.5ZM1429.19 54.5H1432.18V53.5H1429.19V54.5ZM1434.17 54.5H1437.15V53.5H1434.17V54.5ZM1439.14 54.5H1442.12V53.5H1439.14V54.5ZM1444.11 54.5H1447.1V53.5H1444.11V54.5ZM1449.09 54.5H1452.07V53.5H1449.09V54.5ZM1454.06 54.5H1457.04V53.5H1454.06V54.5ZM1459.03 54.5H1462.02V53.5H1459.03V54.5ZM1464.01 54.5H1466.99V53.5H1464.01V54.5ZM1468.98 54.5H1471.97V53.5H1468.98V54.5ZM1473.96 54.5H1476.94V53.5H1473.96V54.5ZM1478.93 54.5H1481.91V53.5H1478.93V54.5ZM1483.9 54.5H1486.89V53.5H1483.9V54.5ZM1488.88 54.5H1491.86V53.5H1488.88V54.5ZM1493.85 54.5H1496.83V53.5H1493.85V54.5ZM1498.82 54.5H1501.81V53.5H1498.82V54.5ZM1503.8 54.5H1506.78V53.5H1503.8V54.5ZM1508.77 54.5H1511.76V53.5H1508.77V54.5ZM1513.74 54.5H1516.73V53.5H1513.74V54.5ZM1518.72 54.5H1521.7V53.5H1518.72V54.5ZM1523.69 54.5H1526.68V53.5H1523.69V54.5ZM1528.67 54.5H1531.65V53.5H1528.67V54.5ZM1533.64 54.5H1536.62V53.5H1533.64V54.5ZM1538.61 54.5H1541.6V53.5H1538.61V54.5ZM1543.59 54.5H1546.57V53.5H1543.59V54.5ZM1548.56 54.5H1551.54V53.5H1548.56V54.5ZM1553.53 54.5H1556.52V53.5H1553.53V54.5ZM1558.51 54.5H1560V53.5H1558.51V54.5ZM1371 55H1372.49V53H1371V55ZM1374.48 55H1377.47V53H1374.48V55ZM1379.46 55H1382.44V53H1379.46V55ZM1384.43 55H1387.41V53H1384.43V55ZM1389.4 55H1392.39V53H1389.4V55ZM1394.38 55H1397.36V53H1394.38V55ZM1399.35 55H1402.33V53H1399.35V55ZM1404.32 55H1407.31V53H1404.32V55ZM1409.3 55H1412.28V53H1409.3V55ZM1414.27 55H1417.26V53H1414.27V55ZM1419.24 55H1422.23V53H1419.24V55ZM1424.22 55H1427.2V53H1424.22V55ZM1429.19 55H1432.18V53H1429.19V55ZM1434.17 55H1437.15V53H1434.17V55ZM1439.14 55H1442.12V53H1439.14V55ZM1444.11 55H1447.1V53H1444.11V55ZM1449.09 55H1452.07V53H1449.09V55ZM1454.06 55H1457.04V53H1454.06V55ZM1459.03 55H1462.02V53H1459.03V55ZM1464.01 55H1466.99V53H1464.01V55ZM1468.98 55H1471.97V53H1468.98V55ZM1473.96 55H1476.94V53H1473.96V55ZM1478.93 55H1481.91V53H1478.93V55ZM1483.9 55H1486.89V53H1483.9V55ZM1488.88 55H1491.86V53H1488.88V55ZM1493.85 55H1496.83V53H1493.85V55ZM1498.82 55H1501.81V53H1498.82V55ZM1503.8 55H1506.78V53H1503.8V55ZM1508.77 55H1511.76V53H1508.77V55ZM1513.74 55H1516.73V53H1513.74V55ZM1518.72 55H1521.7V53H1518.72V55ZM1523.69 55H1526.68V53H1523.69V55ZM1528.67 55H1531.65V53H1528.67V55ZM1533.64 55H1536.62V53H1533.64V55ZM1538.61 55H1541.6V53H1538.61V55ZM1543.59 55H1546.57V53H1543.59V55ZM1548.56 55H1551.54V53H1548.56V55ZM1553.53 55H1556.52V53H1553.53V55ZM1558.51 55H1560V53H1558.51V55Z" fill="#0096AA" fill-opacity="0.5" mask="url(#path-11-inside-1_90_887)"/>
<path d="M1371.34 48.132L1372.04 46.508C1372.46 46.76 1372.9 46.956 1373.38 47.096C1373.87 47.2267 1374.34 47.3013 1374.79 47.32C1375.26 47.3293 1375.68 47.2827 1376.05 47.18C1376.44 47.0773 1376.74 46.9233 1376.96 46.718C1377.2 46.5127 1377.31 46.2513 1377.31 45.934C1377.31 45.5607 1377.16 45.2853 1376.85 45.108C1376.54 44.9213 1376.13 44.828 1375.62 44.828H1373.23V43.12H1375.45C1375.91 43.12 1376.26 43.0267 1376.52 42.84C1376.78 42.6533 1376.91 42.3967 1376.91 42.07C1376.91 41.79 1376.81 41.566 1376.63 41.398C1376.44 41.2207 1376.18 41.09 1375.86 41.006C1375.54 40.922 1375.18 40.8847 1374.78 40.894C1374.38 40.9033 1373.96 40.9687 1373.53 41.09C1373.1 41.2113 1372.69 41.3793 1372.3 41.594L1371.62 39.844C1372.25 39.5173 1372.92 39.2933 1373.62 39.172C1374.33 39.0413 1375.01 39.0087 1375.66 39.074C1376.32 39.13 1376.92 39.2793 1377.45 39.522C1377.99 39.7553 1378.41 40.0633 1378.73 40.446C1379.05 40.8287 1379.2 41.2813 1379.2 41.804C1379.2 42.2707 1379.08 42.686 1378.84 43.05C1378.6 43.414 1378.26 43.694 1377.82 43.89C1377.39 44.086 1376.89 44.184 1376.33 44.184L1376.39 43.68C1377.04 43.68 1377.61 43.792 1378.08 44.016C1378.57 44.2307 1378.94 44.534 1379.2 44.926C1379.47 45.3087 1379.61 45.752 1379.61 46.256C1379.61 46.7227 1379.48 47.1427 1379.23 47.516C1378.99 47.88 1378.65 48.188 1378.22 48.44C1377.79 48.692 1377.3 48.8787 1376.75 49C1376.2 49.1213 1375.62 49.1727 1374.99 49.154C1374.37 49.1353 1373.75 49.0467 1373.13 48.888C1372.5 48.72 1371.91 48.468 1371.34 48.132ZM1385.75 49V47.53L1385.61 47.208V44.576C1385.61 44.1093 1385.46 43.7453 1385.17 43.484C1384.89 43.2227 1384.46 43.092 1383.87 43.092C1383.47 43.092 1383.07 43.1573 1382.68 43.288C1382.3 43.4093 1381.97 43.5773 1381.7 43.792L1380.92 42.266C1381.33 41.9767 1381.82 41.7527 1382.4 41.594C1382.98 41.4353 1383.57 41.356 1384.16 41.356C1385.31 41.356 1386.2 41.6267 1386.84 42.168C1387.47 42.7093 1387.79 43.554 1387.79 44.702V49H1385.75ZM1383.45 49.112C1382.86 49.112 1382.36 49.014 1381.94 48.818C1381.52 48.6127 1381.2 48.3373 1380.97 47.992C1380.75 47.6467 1380.64 47.2593 1380.64 46.83C1380.64 46.382 1380.74 45.99 1380.96 45.654C1381.18 45.318 1381.53 45.0567 1382.01 44.87C1382.48 44.674 1383.1 44.576 1383.87 44.576H1385.87V45.85H1384.11C1383.59 45.85 1383.24 45.934 1383.04 46.102C1382.86 46.27 1382.76 46.48 1382.76 46.732C1382.76 47.012 1382.87 47.236 1383.09 47.404C1383.31 47.5627 1383.61 47.642 1384 47.642C1384.36 47.642 1384.69 47.558 1384.98 47.39C1385.26 47.2127 1385.47 46.956 1385.61 46.62L1385.94 47.628C1385.78 48.1133 1385.49 48.482 1385.07 48.734C1384.65 48.986 1384.11 49.112 1383.45 49.112ZM1389.69 49V41.468H1397.18V49H1394.99V42.77L1395.48 43.26H1391.37L1391.86 42.77V49H1389.69ZM1399.27 49V41.468H1401.44V45.948L1405.11 41.468H1407.11V49H1404.94V44.52L1401.29 49H1399.27ZM1412.79 49.112C1411.98 49.112 1411.26 48.9487 1410.62 48.622C1409.99 48.286 1409.49 47.824 1409.13 47.236C1408.77 46.648 1408.59 45.9807 1408.59 45.234C1408.59 44.478 1408.77 43.8107 1409.13 43.232C1409.49 42.644 1409.99 42.1867 1410.62 41.86C1411.26 41.524 1411.98 41.356 1412.79 41.356C1413.59 41.356 1414.28 41.524 1414.87 41.86C1415.45 42.1867 1415.89 42.658 1416.17 43.274L1414.47 44.184C1414.28 43.8293 1414.03 43.568 1413.73 43.4C1413.44 43.232 1413.13 43.148 1412.78 43.148C1412.41 43.148 1412.07 43.232 1411.77 43.4C1411.47 43.568 1411.24 43.806 1411.06 44.114C1410.89 44.422 1410.81 44.7953 1410.81 45.234C1410.81 45.6727 1410.89 46.046 1411.06 46.354C1411.24 46.662 1411.47 46.9 1411.77 47.068C1412.07 47.236 1412.41 47.32 1412.78 47.32C1413.13 47.32 1413.44 47.2407 1413.73 47.082C1414.03 46.914 1414.28 46.648 1414.47 46.284L1416.17 47.208C1415.89 47.8147 1415.45 48.286 1414.87 48.622C1414.28 48.9487 1413.59 49.112 1412.79 49.112ZM1421.57 43.876C1422.56 43.8853 1423.31 44.1093 1423.82 44.548C1424.35 44.9773 1424.61 45.5887 1424.61 46.382C1424.61 47.2127 1424.31 47.8613 1423.73 48.328C1423.14 48.7853 1422.32 49.014 1421.28 49.014L1417.5 49V41.468H1419.67V43.876H1421.57ZM1421.08 47.46C1421.5 47.4693 1421.82 47.3807 1422.05 47.194C1422.27 47.0073 1422.38 46.7273 1422.38 46.354C1422.38 45.9807 1422.27 45.7147 1422.05 45.556C1421.82 45.388 1421.5 45.2993 1421.08 45.29L1419.67 45.276V47.46H1421.08ZM1429.94 49V41.468H1432.11V44.408H1435.38V41.468H1437.57V49H1435.38V46.186H1432.11V49H1429.94ZM1444.17 49V47.53L1444.03 47.208V44.576C1444.03 44.1093 1443.88 43.7453 1443.59 43.484C1443.31 43.2227 1442.88 43.092 1442.29 43.092C1441.89 43.092 1441.49 43.1573 1441.1 43.288C1440.72 43.4093 1440.39 43.5773 1440.12 43.792L1439.34 42.266C1439.75 41.9767 1440.24 41.7527 1440.82 41.594C1441.4 41.4353 1441.99 41.356 1442.58 41.356C1443.73 41.356 1444.62 41.6267 1445.26 42.168C1445.89 42.7093 1446.21 43.554 1446.21 44.702V49H1444.17ZM1441.87 49.112C1441.28 49.112 1440.78 49.014 1440.36 48.818C1439.94 48.6127 1439.62 48.3373 1439.39 47.992C1439.17 47.6467 1439.06 47.2593 1439.06 46.83C1439.06 46.382 1439.16 45.99 1439.38 45.654C1439.6 45.318 1439.95 45.0567 1440.43 44.87C1440.9 44.674 1441.52 44.576 1442.29 44.576H1444.29V45.85H1442.53C1442.01 45.85 1441.66 45.934 1441.46 46.102C1441.28 46.27 1441.18 46.48 1441.18 46.732C1441.18 47.012 1441.29 47.236 1441.51 47.404C1441.73 47.5627 1442.03 47.642 1442.42 47.642C1442.78 47.642 1443.11 47.558 1443.4 47.39C1443.68 47.2127 1443.89 46.956 1444.03 46.62L1444.36 47.628C1444.2 48.1133 1443.91 48.482 1443.49 48.734C1443.07 48.986 1442.53 49.112 1441.87 49.112ZM1457.41 49L1454.89 45.43L1456.66 44.38L1459.98 49H1457.41ZM1452.07 49V41.468H1454.26V49H1452.07ZM1453.61 46.144V44.394H1456.24V46.144H1453.61ZM1456.87 45.486L1454.83 45.262L1457.48 41.468H1459.8L1456.87 45.486ZM1464.35 49.112C1463.55 49.112 1462.83 48.944 1462.21 48.608C1461.59 48.272 1461.1 47.8147 1460.74 47.236C1460.38 46.648 1460.21 45.9807 1460.21 45.234C1460.21 44.478 1460.38 43.8107 1460.74 43.232C1461.1 42.644 1461.59 42.1867 1462.21 41.86C1462.83 41.524 1463.55 41.356 1464.35 41.356C1465.14 41.356 1465.85 41.524 1466.48 41.86C1467.1 42.1867 1467.59 42.6393 1467.95 43.218C1468.3 43.7967 1468.48 44.4687 1468.48 45.234C1468.48 45.9807 1468.3 46.648 1467.95 47.236C1467.59 47.8147 1467.1 48.272 1466.48 48.608C1465.85 48.944 1465.14 49.112 1464.35 49.112ZM1464.35 47.32C1464.71 47.32 1465.04 47.236 1465.33 47.068C1465.62 46.9 1465.85 46.662 1466.02 46.354C1466.18 46.0367 1466.27 45.6633 1466.27 45.234C1466.27 44.7953 1466.18 44.422 1466.02 44.114C1465.85 43.806 1465.62 43.568 1465.33 43.4C1465.04 43.232 1464.71 43.148 1464.35 43.148C1463.99 43.148 1463.66 43.232 1463.37 43.4C1463.08 43.568 1462.85 43.806 1462.67 44.114C1462.5 44.422 1462.42 44.7953 1462.42 45.234C1462.42 45.6633 1462.5 46.0367 1462.67 46.354C1462.85 46.662 1463.08 46.9 1463.37 47.068C1463.66 47.236 1463.99 47.32 1464.35 47.32ZM1469.98 49V41.468H1472.15V44.408H1475.43V41.468H1477.61V49H1475.43V46.186H1472.15V49H1469.98ZM1483.29 49.112C1482.47 49.112 1481.75 48.9487 1481.12 48.622C1480.48 48.286 1479.98 47.824 1479.62 47.236C1479.26 46.648 1479.09 45.9807 1479.09 45.234C1479.09 44.478 1479.26 43.8107 1479.62 43.232C1479.98 42.644 1480.48 42.1867 1481.12 41.86C1481.75 41.524 1482.47 41.356 1483.29 41.356C1484.08 41.356 1484.77 41.524 1485.36 41.86C1485.95 42.1867 1486.38 42.658 1486.66 43.274L1484.97 44.184C1484.77 43.8293 1484.52 43.568 1484.22 43.4C1483.94 43.232 1483.62 43.148 1483.27 43.148C1482.9 43.148 1482.56 43.232 1482.26 43.4C1481.97 43.568 1481.73 43.806 1481.55 44.114C1481.38 44.422 1481.3 44.7953 1481.3 45.234C1481.3 45.6727 1481.38 46.046 1481.55 46.354C1481.73 46.662 1481.97 46.9 1482.26 47.068C1482.56 47.236 1482.9 47.32 1483.27 47.32C1483.62 47.32 1483.94 47.2407 1484.22 47.082C1484.52 46.914 1484.77 46.648 1484.97 46.284L1486.66 47.208C1486.38 47.8147 1485.95 48.286 1485.36 48.622C1484.77 48.9487 1484.08 49.112 1483.29 49.112ZM1488.9 51.828C1488.51 51.828 1488.12 51.7673 1487.74 51.646C1487.36 51.5247 1487.04 51.3567 1486.8 51.142L1487.6 49.588C1487.77 49.7373 1487.96 49.854 1488.17 49.938C1488.4 50.022 1488.62 50.064 1488.83 50.064C1489.14 50.064 1489.38 49.9893 1489.56 49.84C1489.74 49.7 1489.91 49.462 1490.06 49.126L1490.45 48.202L1490.62 47.964L1493.32 41.468H1495.42L1492.02 49.462C1491.78 50.0687 1491.5 50.5447 1491.18 50.89C1490.87 51.2353 1490.53 51.478 1490.15 51.618C1489.77 51.758 1489.36 51.828 1488.9 51.828ZM1490.19 49.294L1486.83 41.468H1489.08L1491.69 47.768L1490.19 49.294ZM1494.99 48.986L1495.1 47.194C1495.16 47.2033 1495.22 47.2127 1495.27 47.222C1495.33 47.222 1495.38 47.222 1495.43 47.222C1495.69 47.222 1495.89 47.1473 1496.04 46.998C1496.19 46.8487 1496.3 46.648 1496.38 46.396C1496.45 46.1347 1496.5 45.8407 1496.53 45.514C1496.57 45.1873 1496.6 44.8467 1496.62 44.492L1496.73 41.468H1503.17V49H1500.98V42.728L1501.47 43.26H1498.17L1498.63 42.7L1498.53 44.59C1498.51 45.262 1498.45 45.878 1498.37 46.438C1498.29 46.998 1498.17 47.4833 1497.99 47.894C1497.81 48.2953 1497.57 48.608 1497.27 48.832C1496.98 49.0467 1496.59 49.154 1496.13 49.154C1495.96 49.154 1495.78 49.14 1495.59 49.112C1495.41 49.084 1495.21 49.042 1494.99 48.986ZM1509.34 43.876C1510.33 43.8853 1511.08 44.1093 1511.6 44.548C1512.12 44.9773 1512.38 45.5887 1512.38 46.382C1512.38 47.2127 1512.09 47.8613 1511.5 48.328C1510.91 48.7853 1510.09 49.014 1509.05 49.014L1505.27 49V41.468H1507.44V43.876H1509.34ZM1508.85 47.46C1509.27 47.4693 1509.59 47.3807 1509.82 47.194C1510.04 47.0073 1510.15 46.7273 1510.15 46.354C1510.15 45.9807 1510.04 45.7147 1509.82 45.556C1509.59 45.388 1509.27 45.2993 1508.85 45.29L1507.44 45.276V47.46H1508.85ZM1514.69 49V42.756L1515.18 43.26H1512.14V41.468H1519.4V43.26H1516.37L1516.86 42.756V49H1514.69ZM1525.08 49V47.53L1524.94 47.208V44.576C1524.94 44.1093 1524.79 43.7453 1524.5 43.484C1524.22 43.2227 1523.79 43.092 1523.2 43.092C1522.8 43.092 1522.4 43.1573 1522.01 43.288C1521.63 43.4093 1521.3 43.5773 1521.03 43.792L1520.25 42.266C1520.66 41.9767 1521.15 41.7527 1521.73 41.594C1522.31 41.4353 1522.9 41.356 1523.49 41.356C1524.64 41.356 1525.53 41.6267 1526.17 42.168C1526.8 42.7093 1527.12 43.554 1527.12 44.702V49H1525.08ZM1522.78 49.112C1522.19 49.112 1521.69 49.014 1521.27 48.818C1520.85 48.6127 1520.53 48.3373 1520.3 47.992C1520.08 47.6467 1519.97 47.2593 1519.97 46.83C1519.97 46.382 1520.07 45.99 1520.29 45.654C1520.51 45.318 1520.86 45.0567 1521.34 44.87C1521.81 44.674 1522.43 44.576 1523.2 44.576H1525.2V45.85H1523.44C1522.92 45.85 1522.57 45.934 1522.37 46.102C1522.19 46.27 1522.09 46.48 1522.09 46.732C1522.09 47.012 1522.2 47.236 1522.42 47.404C1522.64 47.5627 1522.94 47.642 1523.33 47.642C1523.69 47.642 1524.02 47.558 1524.31 47.39C1524.59 47.2127 1524.8 46.956 1524.94 46.62L1525.27 47.628C1525.11 48.1133 1524.82 48.482 1524.4 48.734C1523.98 48.986 1523.44 49.112 1522.78 49.112ZM1529.02 49V41.468H1531.19V47.208H1534.22V41.468H1536.41V49H1529.02ZM1535.47 50.624V48.972L1535.97 49H1534.22V47.208H1537.5V50.624H1535.47ZM1538.87 49V41.468H1541.04V45.948L1544.71 41.468H1546.71V49H1544.54V44.52L1540.89 49H1538.87ZM1548.81 49V41.468H1550.98V44.24H1553.2V46.13H1550.98V49H1548.81ZM1555.94 49.112C1555.17 49.112 1554.47 48.944 1553.87 48.608C1553.26 48.272 1552.79 47.8147 1552.44 47.236C1552.09 46.648 1551.92 45.9807 1551.92 45.234C1551.92 44.478 1552.09 43.8107 1552.44 43.232C1552.79 42.644 1553.26 42.1867 1553.87 41.86C1554.47 41.524 1555.17 41.356 1555.94 41.356C1556.71 41.356 1557.4 41.524 1558 41.86C1558.6 42.1867 1559.08 42.644 1559.43 43.232C1559.77 43.8107 1559.94 44.478 1559.94 45.234C1559.94 45.9807 1559.77 46.648 1559.43 47.236C1559.08 47.824 1558.6 48.286 1558 48.622C1557.4 48.9487 1556.71 49.112 1555.94 49.112ZM1555.94 47.32C1556.29 47.32 1556.61 47.236 1556.88 47.068C1557.16 46.9 1557.38 46.662 1557.54 46.354C1557.7 46.0367 1557.79 45.6633 1557.79 45.234C1557.79 44.7953 1557.7 44.422 1557.54 44.114C1557.38 43.806 1557.16 43.568 1556.88 43.4C1556.61 43.232 1556.29 43.148 1555.94 43.148C1555.59 43.148 1555.28 43.232 1554.99 43.4C1554.71 43.568 1554.48 43.806 1554.32 44.114C1554.16 44.422 1554.08 44.7953 1554.08 45.234C1554.08 45.6633 1554.16 46.0367 1554.32 46.354C1554.48 46.662 1554.71 46.9 1554.99 47.068C1555.28 47.236 1555.59 47.32 1555.94 47.32Z" fill="#0096AA"/>
<path d="M1375.23 82.858V74.542H1377.55V82.858H1375.23ZM1372.12 79.798V77.602H1380.68V79.798H1372.12ZM1384.32 85L1389.39 73.516L1390.15 74.776H1383.36L1384.66 73.408V76.828H1382.07V72.4H1392.17V74.29L1387.49 85H1384.32ZM1398.42 82.354V80.392L1404.36 72.4H1407.42L1401.6 80.392L1400.18 79.978H1410.1V82.354H1398.42ZM1405.2 85V82.354L1405.29 79.978V77.62H1408.05V85H1405.2ZM1416.37 85.216C1415.31 85.216 1414.39 85.06 1413.6 84.748C1412.8 84.424 1412.19 83.974 1411.74 83.398C1411.3 82.81 1411.08 82.126 1411.08 81.346C1411.08 80.566 1411.29 79.906 1411.72 79.366C1412.17 78.814 1412.79 78.4 1413.58 78.124C1414.37 77.836 1415.3 77.692 1416.37 77.692C1417.45 77.692 1418.38 77.836 1419.18 78.124C1419.98 78.4 1420.6 78.814 1421.03 79.366C1421.47 79.906 1421.7 80.566 1421.7 81.346C1421.7 82.126 1421.47 82.81 1421.03 83.398C1420.59 83.974 1419.96 84.424 1419.16 84.748C1418.37 85.06 1417.44 85.216 1416.37 85.216ZM1416.37 83.074C1417.1 83.074 1417.68 82.912 1418.1 82.588C1418.53 82.264 1418.74 81.82 1418.74 81.256C1418.74 80.692 1418.53 80.254 1418.1 79.942C1417.68 79.618 1417.1 79.456 1416.37 79.456C1415.65 79.456 1415.08 79.618 1414.66 79.942C1414.24 80.254 1414.03 80.692 1414.03 81.256C1414.03 81.82 1414.24 82.264 1414.66 82.588C1415.08 82.912 1415.65 83.074 1416.37 83.074ZM1416.37 79.168C1415.4 79.168 1414.54 79.036 1413.81 78.772C1413.09 78.508 1412.53 78.124 1412.12 77.62C1411.72 77.104 1411.53 76.492 1411.53 75.784C1411.53 75.04 1411.73 74.404 1412.14 73.876C1412.55 73.336 1413.12 72.922 1413.85 72.634C1414.58 72.334 1415.42 72.184 1416.37 72.184C1417.34 72.184 1418.19 72.334 1418.91 72.634C1419.64 72.922 1420.21 73.336 1420.62 73.876C1421.04 74.404 1421.25 75.04 1421.25 75.784C1421.25 76.492 1421.04 77.104 1420.63 77.62C1420.24 78.124 1419.67 78.508 1418.94 78.772C1418.21 79.036 1417.35 79.168 1416.37 79.168ZM1416.37 77.458C1416.98 77.458 1417.46 77.32 1417.81 77.044C1418.17 76.768 1418.35 76.39 1418.35 75.91C1418.35 75.406 1418.16 75.016 1417.79 74.74C1417.43 74.464 1416.96 74.326 1416.37 74.326C1415.79 74.326 1415.32 74.464 1414.96 74.74C1414.6 75.016 1414.42 75.406 1414.42 75.91C1414.42 76.39 1414.6 76.768 1414.95 77.044C1415.29 77.32 1415.77 77.458 1416.37 77.458ZM1427.31 85.216C1426.44 85.216 1425.57 85.102 1424.7 84.874C1423.85 84.634 1423.12 84.298 1422.51 83.866L1423.66 81.634C1424.14 81.982 1424.69 82.258 1425.32 82.462C1425.95 82.666 1426.59 82.768 1427.24 82.768C1427.97 82.768 1428.55 82.624 1428.97 82.336C1429.39 82.048 1429.6 81.646 1429.6 81.13C1429.6 80.806 1429.52 80.518 1429.35 80.266C1429.18 80.014 1428.88 79.822 1428.45 79.69C1428.03 79.558 1427.43 79.492 1426.67 79.492H1423.44L1424.09 72.4H1431.78V74.74H1425.14L1426.65 73.408L1426.2 78.466L1424.69 77.134H1427.35C1428.6 77.134 1429.6 77.308 1430.36 77.656C1431.12 77.992 1431.68 78.454 1432.03 79.042C1432.38 79.63 1432.55 80.296 1432.55 81.04C1432.55 81.784 1432.37 82.474 1431.99 83.11C1431.62 83.734 1431.05 84.244 1430.27 84.64C1429.5 85.024 1428.51 85.216 1427.31 85.216ZM1433.54 85V83.11L1438.4 78.52C1438.78 78.172 1439.07 77.86 1439.25 77.584C1439.43 77.308 1439.55 77.056 1439.61 76.828C1439.68 76.6 1439.71 76.39 1439.71 76.198C1439.71 75.694 1439.54 75.31 1439.19 75.046C1438.86 74.77 1438.36 74.632 1437.7 74.632C1437.17 74.632 1436.68 74.734 1436.22 74.938C1435.78 75.142 1435.4 75.46 1435.09 75.892L1432.96 74.524C1433.44 73.804 1434.12 73.234 1434.98 72.814C1435.84 72.394 1436.84 72.184 1437.97 72.184C1438.9 72.184 1439.72 72.34 1440.42 72.652C1441.12 72.952 1441.67 73.378 1442.05 73.93C1442.45 74.482 1442.65 75.142 1442.65 75.91C1442.65 76.318 1442.59 76.726 1442.49 77.134C1442.39 77.53 1442.19 77.95 1441.87 78.394C1441.57 78.838 1441.13 79.336 1440.54 79.888L1436.51 83.686L1435.95 82.624H1443.06V85H1433.54ZM1455 85.216C1453.84 85.216 1452.84 84.976 1451.99 84.496C1451.15 84.016 1450.5 83.314 1450.05 82.39C1449.59 81.466 1449.36 80.326 1449.36 78.97C1449.36 77.518 1449.63 76.288 1450.17 75.28C1450.72 74.272 1451.48 73.504 1452.44 72.976C1453.41 72.448 1454.53 72.184 1455.79 72.184C1456.46 72.184 1457.1 72.256 1457.71 72.4C1458.33 72.544 1458.85 72.76 1459.3 73.048L1458.22 75.19C1457.87 74.95 1457.5 74.788 1457.1 74.704C1456.71 74.608 1456.29 74.56 1455.86 74.56C1454.77 74.56 1453.9 74.89 1453.27 75.55C1452.63 76.21 1452.31 77.188 1452.31 78.484C1452.31 78.7 1452.31 78.94 1452.31 79.204C1452.33 79.468 1452.36 79.732 1452.42 79.996L1451.61 79.24C1451.84 78.772 1452.13 78.382 1452.49 78.07C1452.85 77.746 1453.28 77.506 1453.77 77.35C1454.28 77.182 1454.83 77.098 1455.43 77.098C1456.24 77.098 1456.98 77.26 1457.62 77.584C1458.27 77.908 1458.79 78.364 1459.17 78.952C1459.57 79.54 1459.77 80.23 1459.77 81.022C1459.77 81.874 1459.55 82.618 1459.12 83.254C1458.7 83.878 1458.13 84.364 1457.41 84.712C1456.7 85.048 1455.9 85.216 1455 85.216ZM1454.83 83.038C1455.24 83.038 1455.6 82.966 1455.91 82.822C1456.24 82.666 1456.49 82.444 1456.67 82.156C1456.85 81.868 1456.94 81.538 1456.94 81.166C1456.94 80.59 1456.74 80.134 1456.35 79.798C1455.96 79.45 1455.45 79.276 1454.8 79.276C1454.37 79.276 1453.99 79.36 1453.66 79.528C1453.34 79.684 1453.08 79.906 1452.89 80.194C1452.71 80.47 1452.62 80.794 1452.62 81.166C1452.62 81.526 1452.71 81.85 1452.89 82.138C1453.07 82.414 1453.32 82.636 1453.65 82.804C1453.97 82.96 1454.37 83.038 1454.83 83.038ZM1462.79 85L1467.86 73.516L1468.62 74.776H1461.83L1463.13 73.408V76.828H1460.54V72.4H1470.63V74.29L1465.95 85H1462.79ZM1471.27 81.058V78.808H1476.36V81.058H1471.27ZM1482.41 72.184C1483.57 72.184 1484.57 72.424 1485.41 72.904C1486.25 73.384 1486.9 74.086 1487.36 75.01C1487.81 75.922 1488.04 77.062 1488.04 78.43C1488.04 79.882 1487.77 81.112 1487.21 82.12C1486.67 83.128 1485.92 83.896 1484.96 84.424C1484 84.952 1482.89 85.216 1481.62 85.216C1480.96 85.216 1480.32 85.144 1479.71 85C1479.1 84.856 1478.57 84.64 1478.12 84.352L1479.2 82.21C1479.55 82.45 1479.92 82.618 1480.32 82.714C1480.72 82.798 1481.13 82.84 1481.56 82.84C1482.64 82.84 1483.5 82.51 1484.14 81.85C1484.78 81.19 1485.11 80.212 1485.11 78.916C1485.11 78.7 1485.1 78.46 1485.09 78.196C1485.08 77.932 1485.05 77.668 1485 77.404L1485.79 78.16C1485.59 78.628 1485.3 79.024 1484.93 79.348C1484.56 79.66 1484.12 79.9 1483.63 80.068C1483.14 80.224 1482.59 80.302 1481.98 80.302C1481.17 80.302 1480.44 80.14 1479.78 79.816C1479.13 79.492 1478.61 79.036 1478.21 78.448C1477.83 77.86 1477.64 77.17 1477.64 76.378C1477.64 75.514 1477.85 74.77 1478.27 74.146C1478.7 73.522 1479.28 73.042 1480 72.706C1480.73 72.358 1481.53 72.184 1482.41 72.184ZM1482.59 74.362C1482.17 74.362 1481.8 74.44 1481.49 74.596C1481.18 74.74 1480.93 74.956 1480.75 75.244C1480.57 75.52 1480.48 75.85 1480.48 76.234C1480.48 76.81 1480.67 77.272 1481.06 77.62C1481.45 77.956 1481.98 78.124 1482.62 78.124C1483.04 78.124 1483.42 78.046 1483.74 77.89C1484.08 77.722 1484.33 77.494 1484.51 77.206C1484.69 76.918 1484.78 76.594 1484.78 76.234C1484.78 75.874 1484.69 75.556 1484.51 75.28C1484.35 74.992 1484.1 74.77 1483.78 74.614C1483.45 74.446 1483.06 74.362 1482.59 74.362ZM1491.31 85V73.48L1492.57 74.74H1488.79V72.4H1494.23V85H1491.31ZM1496.65 81.058V78.808H1501.75V81.058H1496.65ZM1508.81 85.216C1507.78 85.216 1506.86 84.964 1506.04 84.46C1505.23 83.944 1504.58 83.2 1504.12 82.228C1503.65 81.256 1503.41 80.08 1503.41 78.7C1503.41 77.32 1503.65 76.144 1504.12 75.172C1504.58 74.2 1505.23 73.462 1506.04 72.958C1506.86 72.442 1507.78 72.184 1508.81 72.184C1509.86 72.184 1510.78 72.442 1511.59 72.958C1512.4 73.462 1513.04 74.2 1513.51 75.172C1513.98 76.144 1514.21 77.32 1514.21 78.7C1514.21 80.08 1513.98 81.256 1513.51 82.228C1513.04 83.2 1512.4 83.944 1511.59 84.46C1510.78 84.964 1509.86 85.216 1508.81 85.216ZM1508.81 82.75C1509.31 82.75 1509.73 82.612 1510.09 82.336C1510.46 82.06 1510.75 81.622 1510.96 81.022C1511.17 80.422 1511.28 79.648 1511.28 78.7C1511.28 77.752 1511.17 76.978 1510.96 76.378C1510.75 75.778 1510.46 75.34 1510.09 75.064C1509.73 74.788 1509.31 74.65 1508.81 74.65C1508.33 74.65 1507.91 74.788 1507.54 75.064C1507.18 75.34 1506.89 75.778 1506.67 76.378C1506.47 76.978 1506.37 77.752 1506.37 78.7C1506.37 79.648 1506.47 80.422 1506.67 81.022C1506.89 81.622 1507.18 82.06 1507.54 82.336C1507.91 82.612 1508.33 82.75 1508.81 82.75ZM1517.59 85L1522.67 73.516L1523.43 74.776H1516.64L1517.94 73.408V76.828H1515.34V72.4H1525.44V74.29L1520.76 85H1517.59Z" fill="#57585A"/>
</svg>
